<svg xmlns="http://www.w3.org/2000/svg" viewBox="0 0 128 128"><path d="M63.89 0a39.581 39.581 0 0 0-28.097 11.523 39.576 39.576 0 0 0-11.652 28.043 39.366 39.366 0 0 0 4.254 17.38 42.214 42.214 0 0 0 10.539 13.312c2.773-1.48 4.62-3.516 4.804-5.18.184-1.664-.554-3.512-2.59-5.914a29.956 29.956 0 0 1 22.743-49.55h.183a29.96 29.96 0 0 1 27.168 17.542 29.962 29.962 0 0 1-4.61 32.008c-2.034 2.402-2.773 4.25-2.405 6.102.37 1.847 2.035 3.511 4.625 4.992h.183a42.018 42.018 0 0 0 10.54-13.313 39.082 39.082 0 0 0 2.956-8.32 40.005 40.005 0 0 0 1.11-9.059C103.64 17.715 85.926 0 64.074 0Zm0 15.898a24.87 24.87 0 0 0-3.14.372 23.685 23.685 0 0 0-9.246 3.328 24.003 24.003 0 0 0-6.84 6.472 23.662 23.662 0 0 0 .367 27.73l1.664 1.848.555.743a11.826 11.826 0 0 1 3.145 7.765 11.088 11.088 0 0 1-5.918 9.797 39.263 39.263 0 0 0 6.656 2.957l2.219.742a14.642 14.642 0 0 0 3.511-3.515 16.25 16.25 0 0 0 3.328-9.98 21.761 21.761 0 0 0-1.847-7.766 22.006 22.006 0 0 0-4.25-6.657l-.371-.554a18.111 18.111 0 0 1-2.035-2.59 13.234 13.234 0 0 1-1.477-3.695A13.868 13.868 0 0 1 52.43 31.43a13.821 13.821 0 0 1 4.066-3.696 13.703 13.703 0 0 1 7.395-1.851h.183c.68-.051 1.36-.051 2.035 0 3.899.52 7.391 2.668 9.614 5.91a13.883 13.883 0 0 1 2.035 11.102 12.956 12.956 0 0 1-1.848 3.695 18.917 18.917 0 0 1-1.851 2.59l-.368.367a22.176 22.176 0 0 0-4.254 6.844 21.823 21.823 0 0 0-1.664 7.765c-.109 3.5.93 6.942 2.957 9.797a14.86 14.86 0 0 0 3.7 3.7l2.218-.743a39.51 39.51 0 0 0 6.657-2.773 11.083 11.083 0 0 1-5.73-9.98 12.015 12.015 0 0 1 3.14-7.954l.555-.738 1.664-1.848a23.483 23.483 0 0 0 .37-27.734 24.064 24.064 0 0 0-6.656-6.285 23.703 23.703 0 0 0-9.058-3.328c-1.102-.2-2.215-.32-3.328-.372Zm.36 16.282a7.76 7.76 0 0 0-7.148 11.535 7.752 7.752 0 0 0 6.789 3.984 7.765 7.765 0 0 0 7.765-7.765 7.763 7.763 0 0 0-7.406-7.754Zm0 0" fill="#f0424d"/><path d="M37.68 113.492c0 5.113-.465 6.508-1.676 7.813-.742.742-1.86 1.207-4 1.207h-7.625c-2.418 0-3.906-.371-4.93-1.395-1.582-1.676-2.047-3.535-2.047-10.976 0-7.438.465-9.301 2.047-10.973.93-.93 2.512-1.395 4.93-1.395h7.441c2.325 0 3.348.465 4.09 1.207 1.211 1.211 1.676 2.793 1.676 7.442h-4.652c-.09-3.254-.278-3.719-.555-4-.281-.277-.559-.465-1.676-.465h-5.672c-1.398 0-1.863.094-2.14.465-.465.465-.653 1.394-.653 7.719 0 6.328.188 7.164.653 7.629.37.37.742.464 2.14.464h5.766c1.023 0 1.488 0 1.86-.37.37-.376.464-1.305.464-4.372h4.652m7.997-5.582h11.347c0-4.183-.277-5.117-.742-5.582-.281-.277-.652-.465-2.14-.465h-5.583c-1.488 0-1.859.188-2.23.559-.371.371-.559 1.21-.652 5.488Zm0 3.719c0 4.93.37 5.86.746 6.234.37.371.648.465 2.047.465h6.507c.93 0 1.305-.187 1.582-.465.278-.281.371-.93.465-3.07h4.653c0 3.906-.375 5.207-1.676 6.512-.746.742-1.86 1.207-4 1.207h-8.09c-2.418 0-3.906-.371-4.93-1.395-1.582-1.582-2.047-3.535-2.047-10.976 0-7.438.465-9.301 2.047-10.973 1.024-.93 2.512-1.395 4.93-1.395h6.789c2.418 0 4 .465 4.93 1.301 1.582 1.676 2.047 3.535 2.047 10.79v1.394c0 .37-.094.558-.56.558H45.77m34.69 5.954c-.37.37-.929.558-2.507.558h-3.629a9.429 9.429 0 0 1-4.465-1.394l-.277-.094v-13.488a9.969 9.969 0 0 1 4.648-1.395h3.723c1.484 0 2.043.188 2.508.559.652.746.93 2.046.93 7.625 0 5.582-.184 6.882-.93 7.535Zm-1.394-20.09H75.72c-2.047 0-3.07.465-6.137 3.07v-3.07h-4.84V128h4.84v-8.371c3.066 2.512 4.09 2.976 6.137 2.976h3.347c2.7 0 4-.464 5.118-1.488 1.3-1.394 1.859-3.254 1.859-10.976 0-7.72-.559-9.579-1.86-10.973-1.117-1.023-2.417-1.488-5.117-1.488m30.043 1.488c-.93-.93-2.14-1.488-4.277-1.488h-3.906c-2.047 0-3.07.465-6.235 3.07v-9.488a17.542 17.542 0 0 0-4.648-1.86v33.11h4.648v-19.16l1.024-.465a8.505 8.505 0 0 1 3.722-.93h3.16c1.583 0 2.048.188 2.606.652.508.696.707 1.57.559 2.418v17.391h4.836v-17.672c0-3.437-.559-4.648-1.489-5.578" fill="#3b434a"/></svg>
