<svg xmlns="http://www.w3.org/2000/svg" viewBox="0 0 128 128"><path d="M63.89 0a39.57 39.57 0 0 0-39.75 39.566 39.39 39.39 0 0 0 4.255 17.375A42.115 42.115 0 0 0 38.93 70.254c2.773-1.477 4.625-3.512 4.808-5.176.184-1.66-.554-3.512-2.59-5.918a29.94 29.94 0 0 1-4.566-32.086A29.946 29.946 0 0 1 63.891 9.617h.183a29.94 29.94 0 0 1 27.164 17.54 29.939 29.939 0 0 1-4.61 32.003c-2.03 2.406-2.769 4.254-2.401 6.102.37 1.851 2.035 3.515 4.62 4.992h.188a41.975 41.975 0 0 0 10.54-13.313 38.974 38.974 0 0 0 2.956-8.316 40.005 40.005 0 0 0 1.11-9.059C103.64 17.715 85.926 0 64.074 0Zm0 15.902a24.305 24.305 0 0 0-3.144.368 23.69 23.69 0 0 0-9.242 3.328 24.058 24.058 0 0 0-6.844 6.468 23.675 23.675 0 0 0 .371 27.735l1.664 1.847.555.739a11.842 11.842 0 0 1 3.145 7.765 11.09 11.09 0 0 1-5.918 9.801 39.263 39.263 0 0 0 6.656 2.957l2.219.738a14.556 14.556 0 0 0 3.511-3.511 16.228 16.228 0 0 0 3.328-9.985 21.78 21.78 0 0 0-1.847-7.765 22.02 22.02 0 0 0-4.254-6.653l-.367-.554a18.078 18.078 0 0 1-2.035-2.586 13.426 13.426 0 0 1-1.477-3.7 13.88 13.88 0 0 1 2.215-11.464 13.83 13.83 0 0 1 4.07-3.696 13.665 13.665 0 0 1 7.395-1.847h.183c.68-.055 1.36-.055 2.035 0a13.85 13.85 0 0 1 9.614 5.91 13.856 13.856 0 0 1 2.035 11.098 12.939 12.939 0 0 1-1.852 3.699c-.543.91-1.16 1.777-1.847 2.586l-.371.367a22.266 22.266 0 0 0-4.25 6.84 21.86 21.86 0 0 0-1.665 7.765 16.114 16.114 0 0 0 2.957 9.801 14.78 14.78 0 0 0 3.7 3.695l2.218-.738a39.19 39.19 0 0 0 6.657-2.773 11.091 11.091 0 0 1-5.735-9.985 12.017 12.017 0 0 1 3.145-7.949l.555-.738 1.664-1.848a23.477 23.477 0 0 0 .37-27.73 24.02 24.02 0 0 0-6.656-6.29 23.697 23.697 0 0 0-9.062-3.327c-1.098-.2-2.211-.32-3.328-.368Zm.36 16.278a7.762 7.762 0 0 0-7.148 11.535 7.768 7.768 0 0 0 14.555-3.777 7.764 7.764 0 0 0-7.407-7.758Zm25.793 57.222v33.11h4.648v-19.16l1.024-.465a8.502 8.502 0 0 1 3.719-.93h3.164c1.582 0 2.047.188 2.605.652.508.696.707 1.57.555 2.418v17.391h4.84v-17.672c0-3.437-.559-4.648-1.489-5.578-.93-.93-2.14-1.488-4.28-1.488h-3.907c-2.043 0-3.067.465-6.23 3.066v-9.484a17.437 17.437 0 0 0-4.649-1.86Zm-25.3 8.278V128h4.835v-8.371c3.07 2.512 4.094 2.976 6.14 2.976h3.348c2.696 0 4-.464 5.118-1.488 1.3-1.394 1.859-3.254 1.859-10.976 0-7.72-.559-9.579-1.86-10.973-1.117-1.023-2.421-1.488-5.117-1.488H75.72c-2.047 0-3.07.465-6.14 3.066V97.68Zm-40.364.09c-2.418 0-4 .468-4.93 1.398-1.582 1.676-2.047 3.535-2.047 10.973 0 7.441.465 9.3 2.047 10.976 1.024 1.024 2.512 1.395 4.93 1.395h7.625c2.14 0 3.258-.465 4-1.211 1.21-1.301 1.676-2.696 1.676-7.813H33.12c0 3.07-.094 4-.465 4.371-.37.375-.836.375-1.86.375h-5.769c-1.394 0-1.765-.093-2.136-.464-.465-.465-.653-1.301-.653-7.63 0-6.324.188-7.253.653-7.718.277-.371.742-.465 2.136-.465h5.676c1.117 0 1.395.188 1.672.465.281.277.469.746.559 4h4.652c0-4.652-.465-6.23-1.676-7.442-.742-.742-1.765-1.21-4.094-1.21Zm23.621 0c-2.418 0-3.906.468-4.93 1.398-1.578 1.676-2.043 3.535-2.043 10.973 0 7.441.465 9.394 2.043 10.976 1.024 1.024 2.512 1.395 4.93 1.395h8.094c2.14 0 3.258-.465 4-1.211 1.3-1.301 1.672-2.602 1.672-6.508h-4.649c-.094 2.14-.187 2.789-.465 3.066-.277.282-.652.47-1.582.47H48.56c-1.395 0-1.672-.095-2.047-.47-.367-.367-.73-1.277-.742-6.043h15.437c.469 0 .559-.187.559-.558v-1.395c0-7.254-.465-9.113-2.047-10.789-.93-.836-2.508-1.304-4.926-1.304Zm.652 4.093h5.582c1.489 0 1.86.188 2.137.465.469.469.746 1.399.746 5.582H45.77c.093-4.277.28-5.117.652-5.488.371-.371.746-.559 2.23-.559Zm25.578.094h3.72c1.487 0 2.046.188 2.51.559.653.742.93 2.046.93 7.625 0 5.582-.183 6.882-.93 7.535v.094c-.37.37-.929.558-2.51.558h-3.626a9.39 9.39 0 0 1-4.465-1.398l-.28-.09v-13.488a9.998 9.998 0 0 1 4.651-1.395Zm0 0" fill="#f0424d"/></svg>
