<svg xmlns="http://www.w3.org/2000/svg" viewBox="0 0 128 128"><path d="M64 1.488A63.707 63.707 0 0 0 0 65.191c.105 9.73 2.45 19.301 6.848 27.98a67.79 67.79 0 0 0 16.965 21.434c4.464-2.382 7.44-5.656 7.742-8.335.297-2.676-.895-5.657-4.168-9.524A48.224 48.224 0 0 1 64 16.97h.297a48.225 48.225 0 0 1 36.316 79.777c-3.273 3.867-4.465 6.848-3.867 9.824.594 2.977 3.274 5.653 7.442 8.035h.296a67.606 67.606 0 0 0 16.97-21.433 62.654 62.654 0 0 0 4.76-13.395A64.383 64.383 0 0 0 128 65.191c0-35.183-28.52-63.703-63.703-63.703Zm0 25.602a38.59 38.59 0 0 0-5.059.594 38.122 38.122 0 0 0-14.886 5.359 38.663 38.663 0 0 0-11.012 10.418c-9.461 13.453-9.219 31.457.594 44.652l2.68 2.977.894 1.191a19.054 19.054 0 0 1 5.059 12.5 17.861 17.861 0 0 1-9.528 15.778 63.314 63.314 0 0 0 10.719 4.761l3.57 1.192a23.712 23.712 0 0 0 5.657-5.657 26.214 26.214 0 0 0 5.359-16.074 35.144 35.144 0 0 0-2.977-12.5 35.41 35.41 0 0 0-6.847-10.719l-.594-.894a29.063 29.063 0 0 1-3.277-4.164 21.581 21.581 0 0 1-2.38-5.953 22.324 22.324 0 0 1 3.571-18.457 22.339 22.339 0 0 1 6.55-5.953A22.005 22.005 0 0 1 64 43.164h.297a21.802 21.802 0 0 1 3.273 0 22.306 22.306 0 0 1 15.477 9.516 22.313 22.313 0 0 1 3.277 17.87 20.801 20.801 0 0 1-2.976 5.954 30.011 30.011 0 0 1-2.977 4.164l-.594.598A35.659 35.659 0 0 0 72.93 92.28a35.147 35.147 0 0 0-2.68 12.5 25.917 25.917 0 0 0 4.762 15.778 23.767 23.767 0 0 0 5.957 5.953l3.57-1.192a63.349 63.349 0 0 0 10.719-4.465 17.862 17.862 0 0 1-9.23-16.074 19.362 19.362 0 0 1 5.062-12.8l.89-1.188 2.68-2.977c9.906-13.164 10.149-31.23.598-44.652a38.682 38.682 0 0 0-10.719-10.121 38.09 38.09 0 0 0-14.586-5.36c-1.77-.32-3.562-.519-5.36-.593Zm.578 26.207a12.515 12.515 0 0 0-11.226 5.902 12.496 12.496 0 0 0-.293 12.676A12.495 12.495 0 0 0 64 78.289c6.902 0 12.5-5.598 12.5-12.504 0-6.68-5.25-12.176-11.922-12.488Zm0 0" fill="#f0424d"/></svg>
