<svg xmlns="http://www.w3.org/2000/svg" viewBox="0 0 128 128"><path fill="#521094" d="M4.52 51.624c-2.496.005-4.518 2.018-4.52 4.5v10.744a8.45 8.45 0 0 0 2.5 5.998 8.547 8.547 0 0 0 6.034 2.479h7.552a4.484 4.484 0 0 0 4.107-3.979V60.085a8.444 8.444 0 0 0-2.502-5.99 8.54 8.54 0 0 0-6.029-2.471zm.11 2.877 7.007.012a5.683 5.683 0 0 1 4.018 1.656 5.617 5.617 0 0 1 1.654 4v10.845a1.77 1.77 0 0 1-1.502 1.44H8.556a5.685 5.685 0 0 1-4.012-1.65 5.62 5.62 0 0 1-1.66-3.988V56.267a1.765 1.765 0 0 1 1.746-1.766zm27.836.003c-1.78 0-3.182.404-4.261 1.288-1.08.883-1.617 2.143-1.617 3.751 0 2.607 1.877 4.377 5.63 5.288 1.267.375 2.184.777 2.75 1.207.488.399.75 1.01.701 1.636a1.824 1.824 0 0 1-.647 1.527c-.457.401-1.186.592-2.156.592-.892 0-1.768-.241-2.534-.697a5.856 5.856 0 0 1-1.967-1.932.673.673 0 0 0-.46-.296h-.107a.628.628 0 0 0-.432.162l-1.457 1.288a.622.622 0 0 0-.107.883 8.787 8.787 0 0 0 3.047 2.6 8.057 8.057 0 0 0 3.773.968 7.057 7.057 0 0 0 3.141-.647 5.054 5.054 0 0 0 2.19-1.798 4.67 4.67 0 0 0 .81-2.653c0-1.602-.541-2.868-1.592-3.78-.998-.833-2.372-1.474-4.127-1.959-1.291-.32-2.208-.669-2.72-1.098a1.744 1.744 0 0 1-.648-1.446 1.668 1.668 0 0 1 .7-1.397 3.59 3.59 0 0 1 2.077-.563c.74-.012 1.47.155 2.13.485.666.377 1.238.9 1.671 1.528.105.152.272.25.457.267h.082a.604.604 0 0 0 .43-.162l1.418-1.182a.663.663 0 0 0 .081-.911 7.628 7.628 0 0 0-6.256-2.949zm35.175.093a.627.627 0 0 0-.648.644v16.542a.655.655 0 0 0 .648.644h1.617a.655.655 0 0 0 .648-.644V55.241a.655.655 0 0 0-.648-.644zm-60.562 2.38A1.87 1.87 0 0 0 5.44 58.73v5.64c0 .79.644 1.43 1.44 1.43a1.435 1.435 0 0 0 1.435-1.43v-3.58c0-.516.42-.934.939-.934h1.782a1.45 1.45 0 0 0 1.024-.429c.27-.272.42-.64.415-1.023a1.457 1.457 0 0 0-1.457-1.428zm39.473 2.681a6.377 6.377 0 0 0-3.206.859 5.838 5.838 0 0 0-2.211 2.357 6.815 6.815 0 0 0-.783 3.35 6.985 6.985 0 0 0 .783 3.379 5.813 5.813 0 0 0 2.211 2.36 5.97 5.97 0 0 0 3.235.859 6.258 6.258 0 0 0 2.831-.666 6.394 6.394 0 0 0 2.159-1.714.026.026 0 0 0 .019-.008.025.025 0 0 0 .006-.02.649.649 0 0 0-.16-.911l-1.27-.884a.669.669 0 0 0-.889.134 3.583 3.583 0 0 1-1.132.965 3.166 3.166 0 0 1-1.564.31 2.805 2.805 0 0 1-1.67-.453 3.116 3.116 0 0 1-1.161-1.341 4.973 4.973 0 0 1 0-4.022c.25-.541.652-.998 1.16-1.313a3.311 3.311 0 0 1 1.671-.457 2.913 2.913 0 0 1 2.48 1.394.626.626 0 0 0 .432.27h.106a.734.734 0 0 0 .408-.137l1.185-.933a.663.663 0 0 0 .106-.911 7.278 7.278 0 0 0-2.049-1.798 5.3 5.3 0 0 0-2.697-.669zm12.082 0a5.885 5.885 0 0 0-5.365 3.216 7.553 7.553 0 0 0 0 6.729 5.948 5.948 0 0 0 5.419 3.219c.884.012 1.757-.2 2.536-.616.244-.146.485-.296.73-.457v.028a.652.652 0 0 0 .647.64h1.617a.652.652 0 0 0 .648-.64V60.675a.655.655 0 0 0-.648-.644h-1.62a.655.655 0 0 0-.647.644v.056a4.433 4.433 0 0 0-.755-.485 5.714 5.714 0 0 0-2.562-.588zm49.857 0a5.889 5.889 0 0 0-5.393 3.216 7.575 7.575 0 0 0 0 6.729 5.967 5.967 0 0 0 5.418 3.219c.892.01 1.772-.2 2.562-.61.252-.138.495-.29.729-.457v.028a.652.652 0 0 0 .647.64h1.618a.651.651 0 0 0 .648-.64V60.681a.655.655 0 0 0-.648-.643h-1.646a.68.68 0 0 0-.647.672v.053a4.481 4.481 0 0 0-.754-.483 5.541 5.541 0 0 0-2.534-.622zm-30.708.022a6.222 6.222 0 0 0-3.182.858 5.766 5.766 0 0 0-2.19 2.361 7.294 7.294 0 0 0-.782 3.35 7.037 7.037 0 0 0 .783 3.378 6.03 6.03 0 0 0 2.211 2.361 6.48 6.48 0 0 0 3.235.856 6.972 6.972 0 0 0 3.372-.778c.763-.426 1.432-1 1.968-1.689a.722.722 0 0 0-.135-1.017.028.028 0 0 1-.028-.028l-1.104-.8a.723.723 0 0 0-.973.134c-.29.373-.646.69-1.051.933a4.208 4.208 0 0 1-2.05.457 2.857 2.857 0 0 1-2.289-.964 4.09 4.09 0 0 1-.892-1.85h8.447a.646.646 0 0 0 .648-.592c.023-.249.031-.499.025-.749a6.381 6.381 0 0 0-.78-3.135 5.89 5.89 0 0 0-5.233-3.086zm14.722.342a.665.665 0 0 0-.626.457l-2.271 6.927-2.24-6.917a.625.625 0 0 0-.625-.458H85.03a.832.832 0 0 0-.35.081.655.655 0 0 0-.313.778l3.695 11.101a.625.625 0 0 0 .625.455h1.617a.625.625 0 0 0 .626-.43l2.29-6.647 2.13 6.622a.626.626 0 0 0 .626.455l1.668-.004a.663.663 0 0 0 .625-.454l3.667-11.108a.649.649 0 0 0-.378-.802 1.159 1.159 0 0 0-.27-.056H99.75a.665.665 0 0 0-.626.457l-2.211 6.843-2.19-6.843a.625.625 0 0 0-.626-.457zm24.226.028a.626.626 0 0 0-.538.295.634.634 0 0 0-.057.622l4.393 11.532c-.072.426-.304.809-.648 1.073-.403.267-1.185.295-1.616.31h-.001a.705.705 0 0 0-.673.698v1.097a.696.696 0 0 0 .7.697l.201.001h.001c.678.005 1.66.012 2.443-.377 1.571-.825 1.944-1.826 2.364-2.954.055-.148.11-.298.17-.45l4.501-11.689a.752.752 0 0 0-.069-.578.707.707 0 0 0-.538-.267h-1.536a.67.67 0 0 0-.626.429l-3.153 8.087-2.994-8.124a.683.683 0 0 0-.625-.402zM13.374 61.189c-.795 0-1.44.64-1.44 1.43v3.58c0 .516-.42.934-.938.934h-1.78c-.8.005-1.444.654-1.44 1.45a1.445 1.445 0 0 0 1.459 1.43l3.935-.006a1.871 1.871 0 0 0 1.643-1.751v-5.637c0-.79-.645-1.43-1.44-1.43zm64.459 1.232c.888 0 1.589.21 2.074.696.404.406.685.917.81 1.474h-5.862c.189-.52.497-.988.9-1.368a2.825 2.825 0 0 1 2.078-.802zm-18.973.023a2.8 2.8 0 0 1 1.473.483c.5.324.902.78 1.158 1.316a4.95 4.95 0 0 1 0 4.019 3.069 3.069 0 0 1-1.158 1.34 3.43 3.43 0 0 1-1.699.458 2.71 2.71 0 0 1-1.645-.457 3.095 3.095 0 0 1-1.161-1.341 4.473 4.473 0 0 1-.429-2.037 4.682 4.682 0 0 1 .429-2.01 3.45 3.45 0 0 1 1.161-1.313 3.14 3.14 0 0 1 1.645-.457 2.81 2.81 0 0 1 .226 0zm49.853 0c.518.02 1.02.187 1.448.483.508.316.912.774 1.161 1.316a4.95 4.95 0 0 1 0 4.019 3.095 3.095 0 0 1-1.161 1.34 3.25 3.25 0 0 1-1.67.458 2.712 2.712 0 0 1-1.646-.457 3.096 3.096 0 0 1-1.16-1.341 4.474 4.474 0 0 1-.432-2.037 4.302 4.302 0 0 1 .432-2.01c.266-.53.666-.983 1.16-1.313a3.144 3.144 0 0 1 1.646-.457 2.72 2.72 0 0 1 .222 0z"/></svg>
