<svg xmlns="http://www.w3.org/2000/svg" viewBox="0 0 128 128"><path fill="#521094" d="M34.395 0c-13.507 0-24.5 11.017-24.5 24.553V82.13C9.895 107.429 30.417 128 55.66 128h40.086l.02-.002c11.706-.993 21.164-10.2 22.336-21.848l.004-.025V45.869C118.193 20.485 97.756 0 72.428 0Zm0 .992h38.033c24.794 0 44.772 20.024 44.685 44.875v60.194c-1.127 11.162-10.192 19.989-21.42 20.947H55.66c-24.704 0-44.773-20.115-44.773-44.877V24.553c0-12.999 10.54-23.56 23.508-23.56zm.087 13.512a10.01 10.01 0 0 0-10.027 10.049V82.13c0 17.337 13.994 31.365 31.293 31.365h39.389l.031-.004c4.363-.558 7.803-3.912 8.545-8.191l.008-.041V45.87c0-17.252-14.079-31.366-31.293-31.366zm0 .992h37.946c16.672 0 30.3 13.661 30.3 30.373v59.285c-.677 3.841-3.754 6.843-7.671 7.35H55.748c-16.763 0-30.3-13.57-30.3-30.373V24.553c0-5.043 4.005-9.057 9.034-9.057zM47.953 29.1l-.027.002c-4.829.558-8.549 4.564-8.735 9.406V68.775a7.67 7.67 0 0 0 2.264 5.48 7.64 7.64 0 0 0 5.47 2.27c4.244 0 7.731-3.498 7.731-7.75V49.584c0-2.735 2.247-4.988 4.975-4.988h9.441c2.16 0 4.063-.855 5.473-2.268 1.417-1.42 2.262-3.407 2.262-5.57 0-4.266-3.674-7.658-7.91-7.658zm.072.992h20.871c3.706 0 6.918 2.972 6.918 6.666 0 1.905-.742 3.636-1.972 4.869a6.608 6.608 0 0 1-4.77 1.977h-9.441c-3.273 0-5.967 2.701-5.967 5.98v19.191c0 3.71-3.04 6.758-6.738 6.758-1.9 0-3.53-.737-4.768-1.978a6.636 6.636 0 0 1-1.974-4.78V38.547c.167-4.352 3.5-7.946 7.841-8.455zm33.403 21.56c-4.244 0-7.73 3.497-7.73 7.748v19.194c0 2.735-2.25 4.988-4.977 4.988h-9.444c-2.159 0-4.06.855-5.468 2.268-1.418 1.42-2.262 3.405-2.262 5.568v.012c.094 4.253 3.672 7.648 7.908 7.648h20.941l.03-.004c4.828-.558 8.548-4.564 8.734-9.406V59.4a7.67 7.67 0 0 0-2.264-5.48 7.634 7.634 0 0 0-5.468-2.268zm0 .993c1.9 0 3.53.735 4.767 1.976a6.635 6.635 0 0 1 1.973 4.78v30.236c-.17 4.347-3.505 7.94-7.844 8.449H59.455c-3.704 0-6.828-2.969-6.914-6.674.002-1.902.742-3.63 1.97-4.861a6.599 6.599 0 0 1 4.766-1.977h9.444c3.273 0 5.968-2.701 5.968-5.98V59.4c0-3.708 3.04-6.755 6.739-6.755z"/></svg>
