<svg xmlns="http://www.w3.org/2000/svg" viewBox="0 0 128 128"><path fill="#521094" d="M4.89 51.302C2.194 51.308.001 53.491 0 56.174v10.675c0 2.342.935 4.59 2.6 6.245a8.893 8.893 0 0 0 6.278 2.577h7.537a4.86 4.86 0 0 0 4.447-4.309l.002-.02V60.109a8.793 8.793 0 0 0-2.605-6.234 8.882 8.882 0 0 0-6.271-2.572zm.001.796h7.096a8.092 8.092 0 0 1 5.713 2.34 7.992 7.992 0 0 1 2.368 5.67v11.175a4.05 4.05 0 0 1-3.715 3.594H8.878a8.096 8.096 0 0 1-5.716-2.348A7.996 7.996 0 0 1 .796 66.85V56.174c.001-2.252 1.827-4.071 4.095-4.076zm.103 2.065a2.158 2.158 0 0 0-2.127 2.155v10.48c0 1.593.635 3.12 1.766 4.246A6.05 6.05 0 0 0 8.901 72.8h7.232l.028-.003a2.161 2.161 0 0 0 1.83-1.757l.006-.035V60.192a5.982 5.982 0 0 0-1.76-4.257 6.044 6.044 0 0 0-4.273-1.76h-.002l-6.966-.012zm27.655.002-.384.012v.04c-1.636.063-3.024.447-4.09 1.318-1.166.955-1.752 2.349-1.752 4.036 0 1.39.52 2.604 1.523 3.548 1.004.944 2.47 1.63 4.377 2.092l-.02-.004c1.23.365 2.1.759 2.596 1.132.381.315.59.79.551 1.281l-.004.031.002.03c.033.451-.153.89-.502 1.183l-.002.004-.004.002c-.344.302-.968.49-1.88.49-.815 0-1.616-.22-2.315-.637a5.416 5.416 0 0 1-1.82-1.788l-.004-.004-.002-.004a1.067 1.067 0 0 0-.728-.47l-.031-.003h-.13c-.26-.005-.511.09-.703.263l-1.423 1.258c-.217.166-.359.413-.392.685-.032.269.05.54.218.751a9.128 9.128 0 0 0 3.156 2.695 8.407 8.407 0 0 0 3.924 1.007 7.413 7.413 0 0 0 3.286-.677 5.423 5.423 0 0 0 2.347-1.928 5.035 5.035 0 0 0 .874-2.86c0-1.681-.587-3.075-1.718-4.056l-.004-.002-.002-.004c-1.053-.879-2.472-1.532-4.25-2.024l-.005-.002-.006-.002c-1.26-.313-2.132-.664-2.544-1.01l-.004-.001-.002-.002a1.336 1.336 0 0 1-.497-1.108l.002-.016v-.013c-.01-.414.187-.804.524-1.049a3.17 3.17 0 0 1 1.823-.493H32.655a4.175 4.175 0 0 1 1.924.44 4.634 4.634 0 0 1 1.521 1.389c.172.248.445.406.744.435l.017.002h.088a1 1 0 0 0 .712-.268l-.016.015 1.413-1.178.004-.004c.42-.369.475-1.012.128-1.45a7.979 7.979 0 0 0-6.531-3.08l.002-.002h-.012zm34.983.093a1.02 1.02 0 0 0-1.054 1.052V71.741a1.053 1.053 0 0 0 1.034 1.03h1.619a1.055 1.055 0 0 0 1.037-1.03V55.29a1.056 1.056 0 0 0-1.037-1.033h-.002zm-62.628.699 6.958.014a5.25 5.25 0 0 1 3.713 1.527 5.183 5.183 0 0 1 1.526 3.692v10.726a1.355 1.355 0 0 1-1.141 1.089H8.9a5.256 5.256 0 0 1-3.707-1.526 5.184 5.184 0 0 1-1.533-3.68V56.314a1.351 1.351 0 0 1 1.343-1.357zm27.657.004h.012a7.184 7.184 0 0 1 5.892 2.776l.002.002.002.002a.256.256 0 0 1-.033.359v.002l-1.409 1.174-.008.008a.205.205 0 0 1-.145.054h-.056a.221.221 0 0 1-.164-.095 5.43 5.43 0 0 0-1.791-1.638l-.01-.004-.01-.006a4.964 4.964 0 0 0-2.288-.522 3.967 3.967 0 0 0-2.284.621l-.008.004-.008.006a2.056 2.056 0 0 0-.856 1.708 2.13 2.13 0 0 0 .784 1.749c.608.506 1.553.847 2.857 1.17l-.01-.002c1.708.472 3.02 1.09 3.95 1.867l.003.002c.953.83 1.44 1.952 1.44 3.451v.002a4.242 4.242 0 0 1-.736 2.411 4.625 4.625 0 0 1-2.005 1.644l-.004.002-.006.004a6.613 6.613 0 0 1-2.944.606h-.008a7.612 7.612 0 0 1-3.564-.915l-.002-.002-.004-.002a8.335 8.335 0 0 1-2.89-2.465l-.005-.008-.006-.008a.218.218 0 0 1 .039-.31l.011-.01 1.46-1.29.002-.003a.226.226 0 0 1 .155-.058H28.074a.268.268 0 0 1 .179.115l-.004-.008a6.218 6.218 0 0 0 2.088 2.052c.823.49 1.765.749 2.724.749 1.014 0 1.834-.191 2.399-.685a2.208 2.208 0 0 0 .774-1.83 2.305 2.305 0 0 0-.832-1.922l-.006-.006-.006-.004c-.633-.48-1.58-.884-2.861-1.264l-.01-.002-.01-.004c-1.823-.442-3.156-1.088-4.018-1.898-.86-.81-1.273-1.77-1.273-2.97 0-1.51.482-2.618 1.462-3.42.988-.808 2.272-1.19 3.98-1.19zm34.944.093h1.615c.143.002.25.107.252.247v16.428a.249.249 0 0 1-.252.249h-1.596a.249.249 0 0 1-.252-.249V55.281a.224.224 0 0 1 .233-.227zM7.409 56.622l-.026.004a2.259 2.259 0 0 0-1.975 2.116v5.627c0 1.001.823 1.819 1.826 1.819h.002a1.828 1.828 0 0 0 1.823-1.82v-3.557c0-.296.234-.53.535-.53h1.774a1.836 1.836 0 0 0 1.825-1.846v-.002a1.851 1.851 0 0 0-1.844-1.81zm.066.796h3.872c.58.001 1.041.455 1.052 1.027a1.041 1.041 0 0 1-1.035 1.04h-1.77c-.729 0-1.33.598-1.33 1.326v3.558c0 .568-.455 1.023-1.03 1.025a1.023 1.023 0 0 1-1.033-1.025v-5.584a1.456 1.456 0 0 1 1.274-1.367Zm100.74 1.87a6.252 6.252 0 0 0-5.715 3.414v.002l-.002.002a7.927 7.927 0 0 0 0 7.04l.002.001.002.004a6.328 6.328 0 0 0 5.743 3.413h.002a5.781 5.781 0 0 0 2.721-.65l.004-.003.004-.002c.127-.069.244-.154.367-.23.188.275.454.487.807.49h1.615a1.05 1.05 0 0 0 1.037-1.028V60.696a1.054 1.054 0 0 0-1.035-1.032h-1.651l-.01.002c-.36.018-.622.244-.804.532-.13-.082-.25-.178-.386-.247a5.904 5.904 0 0 0-2.698-.664zm-61.558.001a6.731 6.731 0 0 0-3.38.905l-.003.002-.004.002a6.192 6.192 0 0 0-2.344 2.498v.002l-.002.002a7.168 7.168 0 0 0-.82 3.511 7.341 7.341 0 0 0 .818 3.537l.002.002v.002a6.18 6.18 0 0 0 2.348 2.503c1.031.623 2.22.938 3.426.909a6.616 6.616 0 0 0 2.98-.7l.003-.003a6.745 6.745 0 0 0 2.24-1.78c.009-.007.026-.006.033-.013l.006-.006.006-.006c.055-.063.064-.156.074-.245.084-.189.17-.383.134-.59a1.05 1.05 0 0 0-.433-.68l-1.266-.878-.004-.002a1.066 1.066 0 0 0-1.41.211l-.005.006-.002.004a3.16 3.16 0 0 1-.991.844 2.75 2.75 0 0 1-1.351.268l-.02-.002-.021.002a2.394 2.394 0 0 1-1.425-.386l-.002-.002h-.002a2.698 2.698 0 0 1-1.003-1.163 4.544 4.544 0 0 1-.002-3.666v-.002c.214-.465.562-.855.997-1.126.44-.259.942-.398 1.454-.4.871.002 1.677.456 2.128 1.196l.003.006.004.007c.161.24.419.4.705.44l.027.005H49.7c.225-.006.444-.079.627-.21l.007-.006 1.188-.935.004-.004a1.063 1.063 0 0 0 .17-1.452l-.003-.002-.002-.002a7.624 7.624 0 0 0-2.147-1.885l-.006-.002-.003-.004a5.663 5.663 0 0 0-2.877-.712zm12.013 0a6.249 6.249 0 0 0-5.689 3.413v.002a7.907 7.907 0 0 0 0 7.041v.002l.002.002a6.308 6.308 0 0 0 5.742 3.415 5.6 5.6 0 0 0 2.703-.658l.01-.004.008-.006c.117-.07.236-.148.353-.221.188.274.455.485.808.489h1.615a1.05 1.05 0 0 0 1.036-1.029V60.691a1.054 1.054 0 0 0-1.034-1.033H62.6c-.36.005-.626.227-.812.51-.132-.084-.255-.182-.395-.254h-.002l-.002-.002a6.078 6.078 0 0 0-2.72-.623zm19.028.02a6.581 6.581 0 0 0-3.364.908h-.002l-.002.002c-1 .6-1.805 1.47-2.325 2.51a7.645 7.645 0 0 0-.82 3.503 7.393 7.393 0 0 0 .822 3.543v.002a6.392 6.392 0 0 0 2.344 2.502l.004.002.004.003a6.84 6.84 0 0 0 3.408.901 7.327 7.327 0 0 0 3.539-.815l.006-.004.006-.002a6.892 6.892 0 0 0 2.075-1.782v-.002c.182-.235.262-.534.223-.829-.028-.206-.171-.36-.301-.52v-.136l-1.264-.914-.004-.002a1.12 1.12 0 0 0-1.502.208l-.004.004-.002.004a3.388 3.388 0 0 1-.922.817 3.782 3.782 0 0 1-1.832.41h-.033a2.44 2.44 0 0 1-1.955-.824h-.002c-.286-.339-.42-.764-.566-1.178h7.775c.538.001.996-.417 1.04-.953.024-.257.032-.515.026-.772v-.002a6.74 6.74 0 0 0-.823-3.31 6.254 6.254 0 0 0-5.55-3.274zm.002 0 .06.006-.031-.006zm14.623.341a1.06 1.06 0 0 0-.994.728l-1.877 5.726-1.846-5.699a1.024 1.024 0 0 0-1.019-.747h-1.69a1.224 1.224 0 0 0-.515.118l-.01.006-.01.004c-.442.24-.653.768-.498 1.246v.002l3.667 11.015c.126.452.55.76 1.019.742h1.572c.457.022.877-.266 1.019-.7l1.885-5.47 1.748 5.428c.127.451.552.76 1.02.742l1.643-.004a1.06 1.06 0 0 0 .998-.724l3.643-11.04a1.048 1.048 0 0 0-.605-1.29l-.01-.003-.012-.004a1.542 1.542 0 0 0-.359-.076h-1.568a1.063 1.063 0 0 0-.996.728l-1.819 5.625-1.795-5.607a1.021 1.021 0 0 0-1.02-.746h-1.57zm24.084.027c-.353-.003-.68.18-.868.478a1.032 1.032 0 0 0-.09.996l4.3 11.288c-.066.29-.212.558-.448.744-.222.14-.959.225-1.384.24h-.01a1.103 1.103 0 0 0-1.046 1.087v1.092c-.003.292.112.57.318.776h.002c.206.205.485.319.776.316l.195.002c.673.005 1.708.03 2.606-.417l.004-.002.004-.002c1.656-.87 2.12-2.027 2.537-3.148.055-.148.11-.295.167-.441l4.482-11.634.004-.018a1.148 1.148 0 0 0-.105-.881l-.016-.027-.019-.023a1.1 1.1 0 0 0-.836-.416h-1.536c-.44 0-.837.271-.994.681l-2.752 7.058-2.616-7.102-.006-.014a1.076 1.076 0 0 0-.985-.633zm-69.746.406h.008c.865-.019 1.72.192 2.475.612a6.832 6.832 0 0 1 1.916 1.682.256.256 0 0 1-.041.36l-1.157.91h-.002a.335.335 0 0 1-.182.062h-.045a.22.22 0 0 1-.148-.093l.008.013a3.293 3.293 0 0 0-2.803-1.576h-.002a3.69 3.69 0 0 0-1.861.51l-.004.003-.004.002a3.421 3.421 0 0 0-1.304 1.477l-.002.002v.004a5.342 5.342 0 0 0 0 4.318v.002c.278.615.73 1.138 1.3 1.503l.002.002a3.18 3.18 0 0 0 1.875.508c.596.03 1.19-.083 1.728-.343l.008-.004.007-.006a3.95 3.95 0 0 0 1.25-1.064l-.005.008a.262.262 0 0 1 .353-.052l-.006-.006 1.262.879a.253.253 0 0 1 .104.161.25.25 0 0 1-.04.18l-.012.014a5.959 5.959 0 0 1-2.011 1.598l-.002.002h-.002c-.816.41-1.72.622-2.634.619h-.012a5.534 5.534 0 0 1-2.999-.796l-.002-.002a5.376 5.376 0 0 1-2.045-2.184l-.002-.002v-.002a6.54 6.54 0 0 1-.734-3.163v-.02a6.376 6.376 0 0 1 .732-3.135l.002-.002v-.002a5.404 5.404 0 0 1 2.046-2.18l.002-.001a5.943 5.943 0 0 1 2.983-.798zm12 0H58.67a5.281 5.281 0 0 1 2.368.544c.24.122.467.268.678.436l.644.515v-.876a.249.249 0 0 1 .252-.248h1.6a.248.248 0 0 1 .25.246v11.025a.245.245 0 0 1-.248.243h-1.6a.245.245 0 0 1-.25-.245v-.763l-.617.41c-.231.153-.46.295-.693.435a4.8 4.8 0 0 1-2.327.565h-.014a5.513 5.513 0 0 1-5.021-2.98v-.002l-.002-.002a7.103 7.103 0 0 1 .002-6.326v-.002a5.449 5.449 0 0 1 4.968-2.975zm49.545 0h.008a5.102 5.102 0 0 1 2.335.573l.002.002h.002c.241.122.47.269.683.436l.643.509v-.87a.274.274 0 0 1 .268-.273h1.609c.143.002.25.109.252.248V71.73a.245.245 0 0 1-.25.245h-1.6a.245.245 0 0 1-.25-.245v-.794l-.629.449a6.736 6.736 0 0 1-.675.425h-.002a4.99 4.99 0 0 1-2.357.56h-.014a5.53 5.53 0 0 1-5.023-2.983 7.13 7.13 0 0 1 .002-6.325 5.452 5.452 0 0 1 4.996-2.978zm-30.51.021h.006a5.451 5.451 0 0 1 4.846 2.858v.002h.002c.489.896.739 1.902.726 2.92v.016c.006.233-.002.465-.023.697v.004a.24.24 0 0 1-.247.223h-8.88l.093.474a4.47 4.47 0 0 0 .975 2.02l.002.003.002.003a3.236 3.236 0 0 0 2.581 1.09 4.573 4.573 0 0 0 2.21-.496l.013-.005.011-.008a4.175 4.175 0 0 0 1.153-1.023l-.006.008a.316.316 0 0 1 .43-.06h.001l1.093.791-.165-.322c0 .229.196.425.425.425l-.24-.081a.32.32 0 0 1 .06.452 6.098 6.098 0 0 1-1.829 1.57 6.533 6.533 0 0 1-3.154.726h-.01a6.041 6.041 0 0 1-3.01-.796 5.6 5.6 0 0 1-2.048-2.185 6.594 6.594 0 0 1-.733-3.166v-.012a6.852 6.852 0 0 1 .735-3.146v-.002a5.33 5.33 0 0 1 2.023-2.182 5.784 5.784 0 0 1 2.958-.797zm14.637.34h1.591a.22.22 0 0 1 .224.163l.003.008 2.555 7.985 2.58-7.977a.26.26 0 0 1 .246-.179h1.5c.051.005.101.017.148.031a.241.241 0 0 1 .143.301v.002L97.68 71.815a.258.258 0 0 1-.246.178l-1.664.002h-.006a.221.221 0 0 1-.225-.161l-.002-.008-2.484-7.723-2.665 7.737-.002.004a.222.222 0 0 1-.225.153l-.01-.002H88.52a.221.221 0 0 1-.225-.161l-.002-.01-3.674-11.04a.248.248 0 0 1 .12-.293.425.425 0 0 1 .161-.037h1.714a.221.221 0 0 1 .226.163l.002.008 2.604 8.043 2.638-8.043a.26.26 0 0 1 .249-.18zm24.066.027h1.695c.112 0 .21.065.256.165l3.329 9.034 3.515-9.016a.266.266 0 0 1 .25-.173h1.518c.08.002.147.046.202.1a.346.346 0 0 1 .027.232v.002l-4.462 11.584c-.06.154-.115.305-.17.45h-.001c-.417 1.12-.695 1.95-2.157 2.72-.657.324-1.57.336-2.243.331H117.952a.297.297 0 0 1-.212-.085.286.286 0 0 1-.085-.206v-1.095a.297.297 0 0 1 .29-.295c.43-.015 1.222.012 1.808-.376l.011-.006.012-.01c.421-.323.706-.793.794-1.316l.017-.107-4.408-11.57-.006-.012a.231.231 0 0 1 .022-.229l.006-.007.006-.008a.223.223 0 0 1 .192-.107zm-102.711.338a1.828 1.828 0 0 0-1.827 1.819v3.558c0 .296-.234.53-.535.53H9.553a1.838 1.838 0 0 0-1.824 1.84 1.84 1.84 0 0 0 1.848 1.818l3.934-.008.023-.002a2.263 2.263 0 0 0 1.982-2.113v-5.623a1.83 1.83 0 0 0-1.828-1.82zm0 .794c.576 0 1.032.455 1.032 1.025v5.584a1.456 1.456 0 0 1-1.279 1.36l-3.868.006a1.033 1.033 0 1 1-.014-2.067h1.767c.728 0 1.33-.597 1.33-1.325v-3.558c0-.57.455-1.025 1.032-1.025zm64.074.43a3.204 3.204 0 0 0-2.357.911c-.443.42-.783.936-.992 1.508l-.194.534h6.893l-.11-.485a3.425 3.425 0 0 0-.913-1.66c-.573-.573-1.388-.804-2.327-.807zm-19.094.024a3.514 3.514 0 0 0-1.842.513l-.008.003-.007.006c-.548.367-.991.869-1.287 1.456l-.004.006-.002.006a5.05 5.05 0 0 0-.46 2.16c-.02.757.138 1.51.462 2.195a3.471 3.471 0 0 0 1.296 1.499 3.09 3.09 0 0 0 1.862.516 3.812 3.812 0 0 0 1.877-.504l.007-.004.006-.006a3.447 3.447 0 0 0 1.3-1.506 5.32 5.32 0 0 0 0-4.317l-.001-.004-.002-.006a3.58 3.58 0 0 0-1.29-1.467c-.382-.259-.836-.347-1.286-.422v-.11l-.382-.014a3.168 3.168 0 0 0-.239 0zm49.548 0a3.522 3.522 0 0 0-1.844.513l-.006.003-.008.006a3.799 3.799 0 0 0-1.287 1.456l-.002.002-.002.002a4.674 4.674 0 0 0-.466 2.174 4.842 4.842 0 0 0 .466 2.19 3.473 3.473 0 0 0 1.297 1.498c.548.367 1.2.546 1.859.516.653 0 1.293-.173 1.854-.506l.006-.004.004-.004a3.476 3.476 0 0 0 1.304-1.505v-.002a5.32 5.32 0 0 0 0-4.316l-.002-.002v-.002a3.43 3.43 0 0 0-1.299-1.473c-.372-.257-.816-.342-1.257-.418v-.114l-.383-.014a3.117 3.117 0 0 0-.235 0zm-30.483.77H77.746c.82 0 1.393.19 1.78.577.215.217.305.513.433.786h-4.447c.143-.23.244-.486.443-.673l.004-.002.002-.002a2.41 2.41 0 0 1 1.772-.685zm-19.047.024a2.384 2.384 0 0 1 1.446.411l.004.002.004.004c.435.281.783.678 1.005 1.144a4.518 4.518 0 0 1-.002 3.662c-.21.472-.557.871-.994 1.151a3.009 3.009 0 0 1-1.483.4h-.017a2.295 2.295 0 0 1-1.394-.386l-.004-.004-.006-.002a2.677 2.677 0 0 1-1.003-1.16l-.002-.005-.002-.002a4.049 4.049 0 0 1-.388-1.844v-.015a4.254 4.254 0 0 1 .388-1.82c.233-.46.579-.851 1.007-1.14.428-.26.92-.396 1.421-.394h.01zm49.545 0a2.32 2.32 0 0 1 1.417.41l.008.005.008.006c.44.274.789.668 1.004 1.136a4.519 4.519 0 0 1-.002 3.666 2.68 2.68 0 0 1-1.002 1.155c-.438.26-.937.397-1.448.396H108.195a2.295 2.295 0 0 1-1.394-.386l-.004-.004-.004-.002a2.683 2.683 0 0 1-1.005-1.16v-.005l-.002-.004a4.051 4.051 0 0 1-.393-1.843v-.022a3.876 3.876 0 0 1 .389-1.807l.002-.002v-.002c.231-.46.578-.852 1.007-1.141.428-.26.92-.396 1.42-.394h.01z"/></svg>
