<?xml version="1.0" encoding="UTF-8"?>
<svg id="Calque_1" data-name="Calque 1" xmlns="http://www.w3.org/2000/svg" viewBox="0 0 122 144">
  <defs>
    <style>
      .cls-1 {
        fill-rule: evenodd;
      }

      .cls-1, .cls-2 {
        fill: none;
        stroke: #521094;
        stroke-miterlimit: 10;
      }
    </style>
  </defs>
  <path class="cls-2" d="M66.68,32.95h-23.68c-5.2.6-9.19,4.91-9.39,10.12v34.25c0,2.3.9,4.31,2.4,5.81,1.5,1.5,3.5,2.4,5.8,2.4,4.5,0,8.19-3.71,8.19-8.21v-21.73c0-3.41,2.8-6.21,6.2-6.21h10.69c2.3,0,4.3-.9,5.8-2.4s2.4-3.61,2.4-5.91c0-4.51-3.9-8.11-8.39-8.11Z"/>
  <path class="cls-2" d="M55.98,111.08h23.68c5.2-.6,9.19-4.91,9.39-10.12v-34.25c0-2.3-.9-4.31-2.4-5.81-1.5-1.5-3.5-2.4-5.8-2.4-4.5,0-8.19,3.71-8.19,8.21v21.73c0,3.41-2.8,6.21-6.2,6.21h-10.69c-2.3,0-4.3.9-5.8,2.4-1.5,1.5-2.4,3.61-2.4,5.91.1,4.51,3.9,8.11,8.39,8.11Z"/>
  <path class="cls-1" d="M27.6,0h43.07c28.38,0,51.27,22.94,51.17,51.38v68.21c-1.3,12.92-11.79,23.14-24.78,24.24h-45.37C23.4,143.83.42,120.79.42,92.45V27.24C.42,12.22,12.61,0,27.6,0ZM105.55,51.38c0-19.23-15.69-34.96-34.88-34.96H27.7c-6,0-10.79,4.81-10.79,10.82v65.2c0,19.33,15.59,34.96,34.88,34.96h44.57c4.7-.6,8.39-4.21,9.19-8.81V51.38Z"/>
</svg>