<svg xmlns="http://www.w3.org/2000/svg" viewBox="0 0 128 128"><path fill="#3a78b1" d="M31.691 0C14.134 0 0 14.134 0 31.691V96.31C0 113.866 14.134 128 31.691 128H96.31C113.866 128 128 113.866 128 96.309V31.69C128 14.134 113.866 0 96.309 0H31.69zm34.246 12.092c27.785 0 44.34 21.447 44.34 43.416 0 37.723-35.877 44.031-35.877 44.031s2.215-3.54 2.215-9.078c0-5.539-2.46-8.615-2.46-8.615s18.46-4.924 18.46-26.77S76.308 29.54 66.155 29.54c-17.54 0-27.17 14.922-27.17 25.938v55.968c0 7.97-5.385 7.356-5.385 7.356H27.69s-5.66 0-5.66-7.508V56.309c0-19.385 16.122-44.217 43.907-44.217zm-6.583 63.785a14.77 14.77 0 0 1 14.769 14.77 14.77 14.77 0 0 1-14.77 14.769 14.77 14.77 0 0 1-14.769-14.77 14.77 14.77 0 0 1 14.77-14.769z"/></svg>
