<svg xmlns="http://www.w3.org/2000/svg" viewBox="0 0 128 128"><path fill="#3a78b1" d="M32.188 0C14.373 0 0 14.373 0 32.188v63.624C0 113.627 14.373 128 32.188 128h63.624C113.627 128 128 113.627 128 95.812V32.188C128 14.373 113.627 0 95.812 0Zm0 1.97h63.624a30.13 30.13 0 0 1 30.219 30.218v63.624a30.13 30.13 0 0 1-30.22 30.219H32.189A30.13 30.13 0 0 1 1.97 95.81V32.189A30.13 30.13 0 0 1 32.19 1.97zm33.72 9.936c-13.972 0-25.071 6.269-32.618 14.95-7.546 8.68-11.598 19.755-11.598 29.57v54.139c0 3.944 1.582 6.198 3.227 7.289 1.645 1.09 3.331 1.088 3.331 1.088h5.817l-.111-.006s1.663.192 3.284-.823c1.622-1.015 3.114-3.253 3.114-7.398V55.608c0-5.136 2.282-11.33 6.648-16.177 4.366-4.848 10.764-8.377 19.12-8.377 4.879 0 11.205.907 16.22 4.334 5.015 3.428 8.848 9.315 8.848 19.825 0 10.478-4.37 16.744-8.744 20.499-4.374 3.755-8.702 4.907-8.702 4.907l-1.457.389.942 1.179s2.208 2.705 2.208 7.867c0 5.19-2.031 8.415-2.031 8.415l-1.173 1.875 2.179-.382s9.037-1.584 18.057-7.912c9.02-6.328 18.081-17.528 18.081-36.412 0-22.125-16.778-43.732-44.642-43.732Zm0 1.969c26.85 0 42.673 20.627 42.673 41.763 0 18.26-8.603 28.738-17.244 34.8-7.104 4.984-13.046 6.52-15.347 7.045.676-1.62 1.416-3.958 1.416-7.43 0-4.39-1.289-6.8-2.016-7.968 1.333-.439 4.527-1.609 8.337-4.88 4.714-4.046 9.433-10.96 9.433-21.992 0-11-4.196-17.684-9.708-21.451-5.512-3.768-12.213-4.677-17.33-4.677-8.914 0-15.891 3.817-20.584 9.027-4.692 5.21-7.153 11.786-7.153 17.496v55.107c0 3.702-1.16 5.085-2.189 5.73-1.03.644-2.017.534-2.017.534l-.056-.006H28.25s-1.101-.003-2.242-.76c-1.142-.757-2.346-2.2-2.346-5.648V56.427c0-9.27 3.885-19.963 11.115-28.28 7.23-8.315 17.745-14.272 31.13-14.272zM59.425 74.71c-8.564 0-15.527 6.963-15.527 15.527 0 8.563 6.963 15.527 15.527 15.526 8.564 0 15.527-6.963 15.527-15.526 0-8.564-6.963-15.528-15.527-15.527Zm0 1.969c7.5 0 13.558 6.058 13.558 13.558 0 7.499-6.059 13.557-13.558 13.557-7.5 0-13.558-6.058-13.558-13.557 0-7.5 6.059-13.558 13.558-13.558Z"/></svg>
