<svg xmlns="http://www.w3.org/2000/svg" viewBox="0 0 128 128"><defs><linearGradient id="a" x1="561.93" x2="561.93" y1="593.85" y2="491.29" gradientTransform="translate(-18.683 -141.859) scale(.40906)" gradientUnits="userSpaceOnUse"><stop offset="0" stop-color="#00a8f4" style="--darkreader-inline-stopcolor:var(--darkreader-background-00a8f4, #0086c3)"/><stop offset="1" stop-color="#00e5d0" style="--darkreader-inline-stopcolor:var(--darkreader-background-00e5d0, #00b7a6)"/></linearGradient></defs><path d="M58.425 0C53.55 8.079 46.337 17.91 41.72 24.283c-2.02 2.785-3.767 5.195-5.056 7.08a844.34 844.34 0 0 1-2.798 4.038c-5.268 7.576-10.722 15.41-14.436 23.816-3.612 8.169-5.195 16.517-4.7 24.809.474 8.038 2.978 15.777 7.232 22.388 4.205 6.533 10.12 11.95 17.103 15.663 7.216 3.833 15.315 5.829 24.081 5.923h1.711c8.766-.094 16.865-2.086 24.081-5.923 6.983-3.714 12.894-9.13 17.103-15.663 4.255-6.61 6.758-14.35 7.232-22.388.491-8.292-1.092-16.64-4.7-24.81h-.024c-3.718-8.41-9.17-16.243-14.435-23.815a678.551 678.551 0 0 1-2.798-4.037c-1.289-1.882-3.036-4.292-5.057-7.081C81.64 17.905 74.428 8.075 69.552 0v20.217c5.023 7.207 9.9 13.699 12.505 17.5 5.703 8.315 12.31 17.18 16.228 26.04 11.773 26.642-4.786 52.708-33.563 53.019h-1.465c-28.778-.311-45.34-26.377-33.564-53.019 3.92-8.864 10.521-17.725 16.228-26.04 2.601-3.797 7.477-10.293 12.505-17.5z" style="fill:url(#a)"/></svg>
