<svg xmlns="http://www.w3.org/2000/svg" viewBox="0 0 128 128"><path d="M16.322 40.142c-1.817 3.011-4.506 6.676-6.227 9.052a127.583 127.583 0 0 0-1.885 2.64c-.339.492-.68.983-1.043 1.505-1.964 2.824-3.997 5.744-5.382 8.878C.44 65.262-.152 68.374.033 71.465c.177 2.997 1.11 5.882 2.696 8.346a17.178 17.178 0 0 0 6.376 5.84c2.69 1.428 5.71 2.172 8.977 2.207h.638c3.268-.035 6.287-.777 8.977-2.207a17.19 17.19 0 0 0 6.376-5.84c1.586-2.464 2.519-5.35 2.696-8.346.183-3.09-.407-6.203-1.752-9.248h-.01c-1.385-3.135-3.418-6.056-5.38-8.878-.364-.52-.705-1.013-1.044-1.505-.48-.702-1.131-1.6-1.885-2.64-1.721-2.378-4.41-6.042-6.228-9.052v7.536c1.873 2.687 3.69 5.107 4.662 6.524 2.126 3.1 4.589 6.404 6.05 9.707 4.388 9.932-1.784 19.65-12.512 19.765h-.546C7.396 83.558 1.22 73.841 5.61 63.91c1.461-3.304 3.923-6.607 6.05-9.707.97-1.415 2.788-3.837 4.662-6.524zm108.389 17.791v4.808a2.558 2.558 0 0 0-.444-.209 4.975 4.975 0 0 0-1.2-.277 10.36 10.36 0 0 0-.934-.055c-1.791 0-3.136.526-4.031 1.577-.897 1.052-1.344 2.488-1.344 4.31 0 1.169.151 2.146.456 2.932.303.785.721 1.403 1.255 1.855a4.77 4.77 0 0 0 1.9.967 9.499 9.499 0 0 0 2.411.289c.651 0 1.289-.07 1.911-.211a6.593 6.593 0 0 0 1.677-.611 3.473 3.473 0 0 0 1.188-1.011c.296-.408.444-.885.444-1.434v-12.93h-3.288zm-36.369.378v15.486h3.288V58.311zm-47.166.667v14.818h3.599v-5.887h5.444v5.887h3.576V58.978h-3.576v5.999h-5.444v-6zm31.926 3.199c-.741 0-1.433.055-2.077.166a6.98 6.98 0 0 0-1.7.5c-.488.223-.874.504-1.156.845-.282.342-.422.755-.422 1.245v12.885h3.243v-4.283c.16.088.33.167.51.228.46.156.904.255 1.334.301.43.044.755.067.977.067 1.052 0 1.945-.244 2.678-.734.734-.49 1.3-1.174 1.7-2.055.4-.881.6-1.9.6-3.055 0-1.54-.241-2.755-.722-3.642-.481-.89-1.148-1.523-1.999-1.9v-.002c-.852-.378-1.84-.566-2.966-.566zm11.885.044c-.696 0-1.389.093-2.076.278-.69.186-1.3.392-1.833.622-.534.23-.905.433-1.11.612v10.064h3.31v-8.686c.252-.044.563-.073.933-.089a21.567 21.567 0 0 1 2.377.044c.385.031.704.075.955.133v-2.421c-.207-.163-.51-.296-.91-.4-.4-.103-.949-.155-1.644-.155zm13.353.002c-1.008 0-1.914.104-2.722.312-.808.207-1.403.43-1.789.666v2.932c.415-.326.952-.604 1.61-.832a5.967 5.967 0 0 1 1.966-.345c.8 0 1.418.153 1.856.456.436.303.656.796.656 1.478v.713a5.113 5.113 0 0 0-.345-.181 5.984 5.984 0 0 0-1.278-.423 6.85 6.85 0 0 0-1.467-.155c-.904 0-1.651.14-2.243.422-.593.282-1.033.682-1.322 1.2-.288.519-.433 1.126-.433 1.823 0 .74.125 1.359.378 1.854.252.497.604.889 1.055 1.177.452.288.978.496 1.577.622.6.125 1.24.19 1.921.19 1.141 0 2.114-.089 2.922-.267.807-.179 1.426-.462 1.854-.856.43-.392.646-.907.646-1.545l.022-5.31c0-.681-.11-1.251-.333-1.71a3.302 3.302 0 0 0-.877-1.133 4.068 4.068 0 0 0-1.188-.678 6.323 6.323 0 0 0-1.289-.321 8.636 8.636 0 0 0-1.177-.089zm12.486.022c-.474 0-.988.036-1.545.111-.555.075-1.107.17-1.654.288-.548.12-1.052.256-1.511.412a7.83 7.83 0 0 0-1.11.456v10.286h3.31v-8.442c.178-.089.436-.174.778-.255.34-.08.682-.122 1.022-.122.4 0 .74.049 1.021.145.28.096.504.23.667.4.163.17.285.373.366.61.08.239.122.498.122.778V73.8h3.31v-7.554c0-.993-.189-1.777-.565-2.355-.379-.578-.923-.996-1.634-1.255v-.002c-.71-.26-1.57-.389-2.577-.389zm-56.054.31 4.516 11.115a4.281 4.281 0 0 1-.185.516c-.178.407-.404.696-.677.867a1.79 1.79 0 0 1-.967.256c-.222 0-.438-.019-.643-.055-.208-.037-.43-.1-.667-.19v2.69c.252.118.556.214.91.288a5.38 5.38 0 0 0 1.09.111c.533 0 1.052-.133 1.555-.4.503-.267.988-.703 1.455-1.311.466-.607.9-1.429 1.299-2.466l4.42-11.42h-3.554l-2.366 7.367-2.387-7.367zm68.206 2.308c.281 0 .574.041.877.122.304.082.589.197.856.345V70.509c0 .282-.166.492-.5.633-.334.14-.767.21-1.3.21-.696 0-1.247-.13-1.654-.389-.408-.259-.7-.622-.877-1.089-.179-.466-.267-1.024-.267-1.677 0-.83.107-1.488.322-1.978.215-.488.537-.837.967-1.045.43-.207.954-.31 1.576-.31zm-50.008.091c.65 0 1.158.13 1.521.39.363.259.618.624.767 1.099.148.474.223 1.052.223 1.732 0 .814-.1 1.462-.3 1.944h-.002c-.2.482-.493.827-.877 1.033-.386.207-.874.31-1.467.31-.267 0-.57-.036-.91-.11a3.16 3.16 0 0 1-.934-.356V65.71c0-.223.151-.402.456-.544.304-.14.811-.21 1.522-.21zm25.237 4.066c.475 0 .918.052 1.333.155.133.034.258.072.378.113v1.733c0 .31-.152.518-.456.622v-.002c-.303.103-.832.155-1.589.155-.296 0-.58-.06-.855-.178a1.561 1.561 0 0 1-.656-.511 1.244 1.244 0 0 1-.244-.755c0-.459.166-.796.5-1.01.334-.216.863-.323 1.59-.323z" fill="#00c6e2"/></svg>
