<svg viewBox="0 0 128 128" xmlns="http://www.w3.org/2000/svg"><path d="M109.558 31.1214L84.6013 12.9482C69.4621 1.92282 64.3057 -2.38141 43.0077 12.948L18.0515 31.1213C2.91187 42.1466 -2.76511 45.7309 5.19858 70.7703L14.7311 100.175C20.5143 118.014 22.1605 124.534 48.3811 124.679H79.2279C97.9423 124.679 104.637 125.124 112.878 100.175L122.411 70.7704C128.194 52.9306 130.685 46.6869 109.558 31.1214Z" fill="#8CC445"/><path d="M5.21182 70.7557C5.21182 70.7557 2.19864 60.0062 1.80005 56.071L1.80487 56.0657C30.3075 67.7582 71.1053 76.8256 118.838 81.752L112.884 100.191C104.643 125.139 97.9483 124.664 79.2341 124.664H48.3948C22.174 124.518 20.528 118.031 14.7449 100.191L5.21182 70.7557Z" fill="#6FAD20"/><path d="M81.1617 41.4014L85.51 24.672L85.5127 24.6723L106.151 39.6917C110.941 42.9877 114.881 46.355 116.185 51.7608C117.508 57.2434 115.692 61.1189 114.379 65.1709L103.408 99.0986C101.762 104.682 99.7717 109.462 95.0461 112.375C90.2527 115.33 86.018 114.822 81.7672 114.822H46.1766C40.3654 114.978 35.2169 114.606 30.9904 111C30.9904 111 25.8819 103.151 24.5683 99.0984L13.5639 65.1709C11.6157 59.6717 10.408 54.6314 12.5266 49.4811C14.6719 44.2667 18.3863 42.196 21.8255 39.6918L42.4298 24.7059L46.7781 41.4353C43.8493 43.5684 27.7874 55.3548 27.5452 55.5494C27.6073 55.8612 40.344 95.6238 41.3925 98.5624C41.3925 98.5624 42.8784 98.8202 45.9415 98.7301H81.7643C85.0393 98.7301 86.0659 98.6389 86.447 98.6293C86.5845 98.3324 99.5915 58.6606 100.462 55.6832L81.1617 41.4014Z" fill="white"/><path d="M63.1706 12.8442C58.5591 13.1269 54.6546 15.6114 50.627 18.7112C50.5885 18.7401 50.5617 18.7809 50.5264 18.812L61.564 61.407L66.3806 61.4071L77.4524 18.8121L77.3518 18.7113C73.9127 16.2071 70.7873 13.3114 65.1765 12.8779C64.4856 12.8242 63.8283 12.8039 63.1695 12.8446L63.1706 12.8442Z" fill="white"/></svg>
