<svg viewBox="0 0 128 128" xmlns="http://www.w3.org/2000/svg"><path d="M43.0079 12.9484C64.3059 -2.381 69.4625 1.923 84.6017 12.9484L109.558 31.1212C130.685 46.6867 128.194 52.9309 122.411 70.7707L112.878 100.175C104.637 125.124 97.9421 124.679 79.2277 124.679H48.381C22.1604 124.534 20.5138 118.014 14.7306 100.175L5.19836 70.7707C-2.76533 45.7313 2.91228 42.1465 18.0519 31.1212L43.0079 12.9484ZM81.1613 41.4015L100.462 55.6828C99.5923 58.659 86.595 98.3013 86.4474 98.6291C86.0663 98.6387 85.0388 98.7296 81.7638 98.7296H45.9415C42.9025 98.819 41.4159 98.5666 41.3927 98.5627C40.3442 95.6241 27.6071 55.8608 27.545 55.549C27.7931 55.3501 43.8502 43.5684 46.7784 41.4357L42.4298 24.7062L21.8253 39.6916C18.3862 42.1957 14.6718 44.2665 12.5265 49.4806C10.4079 54.6309 11.6154 59.6719 13.5636 65.1711L24.5685 99.0988C25.8823 103.152 30.9904 111 30.9904 111C35.2168 114.606 40.3657 114.978 46.1769 114.822H81.7667C86.0175 114.822 90.2527 115.33 95.046 112.375C99.7716 109.462 101.762 104.682 103.408 99.0988L114.379 65.1711C115.692 61.1191 117.508 57.2435 116.185 51.7609C114.881 46.3551 110.941 42.9876 106.151 39.6916L85.5128 24.672H85.5099L81.1613 41.4015ZM63.1691 12.8449L63.171 12.8439C58.5596 13.1266 54.6546 15.6113 50.6271 18.7111C50.5887 18.7399 50.5617 18.7806 50.5265 18.8117L61.5636 61.4074H66.381L77.4523 18.8117L77.3517 18.7111C73.9127 16.207 70.7873 13.3117 65.1769 12.8781C64.486 12.8244 63.8279 12.8041 63.1691 12.8449Z" fill="#8CC445"/></svg>
