<svg xmlns="http://www.w3.org/2000/svg" viewBox="0 0 128 128"><path fill="#516baa" d="M59.241.008a.085.085 0 0 0-.048.074v67.453c0 .043.032.079.075.084l31.81 3.55a.086.086 0 0 0 .096-.075.091.091 0 0 0-.01-.044L59.355.048a.085.085 0 0 0-.113-.04zm-3.674 23.6a.085.085 0 0 0-.113.04l-21.237 47.4a.087.087 0 0 0-.007.046.085.085 0 0 0 .098.071l21.237-3.64c.04-.006.069-.04.068-.081l.002-43.76a.086.086 0 0 0-.048-.076zM34.359 74.26a.082.082 0 0 0-.08.049.084.084 0 0 0 .042.11l21.263 10.55a.09.09 0 0 0 .062 0l35.189-10.55a.084.084 0 0 0 .046-.061.084.084 0 0 0-.068-.098zm41.913 21.607c-.91 0-1.659.294-2.244.88-.587.586-.88 1.335-.88 2.243 0 .909.293 1.655.88 2.241.585.587 1.334.88 2.244.88.908 0 1.656-.293 2.244-.88.586-.586.879-1.332.879-2.241 0-.908-.293-1.657-.88-2.244-.587-.585-1.335-.88-2.243-.88zm-52.166 1.012a.511.511 0 0 0-.374.153.507.507 0 0 0-.153.374v29.716c0 .147.049.272.153.374a.51.51 0 0 0 .374.153h4.047c.147 0 .27-.051.374-.153a.51.51 0 0 0 .155-.374V97.405a.514.514 0 0 0-.155-.374.513.513 0 0 0-.374-.153zm34.925 2.417a.511.511 0 0 0-.375.155.506.506 0 0 0-.152.372v5.145c0 .146-.076.22-.222.22h-2.507a.51.51 0 0 0-.374.152.51.51 0 0 0-.153.374v3.077c0 .147.05.272.153.374a.502.502 0 0 0 .374.153h2.507c.146 0 .222.075.222.222v12.527c.028 2.197.615 3.693 1.758 4.483 1.143.793 2.874 1.187 5.19 1.187l2.288-.044c.352-.06.527-.248.527-.571v-3.298a.51.51 0 0 0-.153-.372.514.514 0 0 0-.374-.155h-1.32c-1.056 0-1.826-.248-2.31-.747-.484-.498-.725-1.305-.725-2.419V109.54c0-.147.073-.222.22-.222h4.487c.147 0 .27-.048.374-.153a.507.507 0 0 0 .153-.374v-3.077a.51.51 0 0 0-.153-.374.512.512 0 0 0-.374-.153h-4.487c-.147 0-.22-.073-.22-.219v-5.145c0-.146-.05-.27-.152-.372a.518.518 0 0 0-.377-.155zm35.363 5.54c-2.345 0-4.355.57-6.027 1.713-1.671 1.144-2.843 2.741-3.517 4.791-.47 1.466-.704 3.137-.704 5.013 0 1.757.248 3.427.746 5.01.674 2.08 1.841 3.708 3.498 4.88 1.656 1.172 3.643 1.758 5.96 1.758 2.258 0 4.207-.593 5.85-1.78 1.641-1.187 2.8-2.82 3.475-4.902.498-1.494.746-3.164.746-5.01 0-1.934-.264-3.605-.79-5.01-.676-2.023-1.825-3.606-3.454-4.75-1.627-1.143-3.554-1.714-5.783-1.714zm-51.42.088c-2.639 0-4.766.607-6.378 1.823-1.613 1.216-2.417 2.85-2.417 4.901 0 1.349.351 2.456 1.055 3.32a7.552 7.552 0 0 0 2.596 2.045c1.026.499 2.285.966 3.78 1.406l1.673.525c1.348.381 2.324.742 2.926 1.079.6.337.901.841.901 1.515 0 .732-.367 1.34-1.1 1.825-.734.483-1.687.726-2.86.726-1.232 0-2.25-.271-3.057-.815-.806-.54-1.21-1.179-1.21-1.911v-.089c0-.146-.05-.27-.152-.374a.512.512 0 0 0-.374-.153h-3.872c-.147 0-.27.051-.372.153a.51.51 0 0 0-.155.374v.397c0 1.172.38 2.234 1.143 3.187.762.953 1.841 1.7 3.234 2.242 1.392.542 3.011.812 4.86.812 2.726 0 4.91-.594 6.553-1.78 1.642-1.188 2.463-2.821 2.463-4.902 0-1.377-.365-2.496-1.099-3.36a7.661 7.661 0 0 0-2.682-2.024c-1.055-.484-2.363-.958-3.916-1.43l-.968-.263c-1.613-.44-2.764-.84-3.453-1.207-.689-.365-1.032-.903-1.032-1.606 0-.76.358-1.354 1.077-1.778.718-.425 1.65-.638 2.793-.638 1.29 0 2.308.255 3.056.768.747.514 1.123 1.15 1.123 1.912 0 .146.05.272.153.374a.508.508 0 0 0 .374.155h3.739a.51.51 0 0 0 .374-.155.51.51 0 0 0 .153-.374c0-1.29-.366-2.44-1.098-3.45-.734-1.012-1.775-1.802-3.123-2.373-1.35-.572-2.92-.857-4.707-.857zm31.187.219a.51.51 0 0 0-.374.153.511.511 0 0 0-.153.374v21.452c0 .147.05.272.153.374a.51.51 0 0 0 .374.153h4.047c.147 0 .27-.051.374-.153a.508.508 0 0 0 .153-.374v-21.452a.511.511 0 0 0-.153-.374.512.512 0 0 0-.374-.153zm20.103 4.089c1.143 0 2.11.3 2.901.899.791.601 1.349 1.46 1.672 2.574.293.879.439 2.109.439 3.692 0 1.495-.146 2.725-.439 3.692-.351 1.114-.917 1.978-1.694 2.594-.778.615-1.709.921-2.793.921-1.144 0-2.12-.306-2.926-.921-.807-.616-1.37-1.48-1.692-2.594-.294-1.026-.44-2.256-.44-3.692 0-1.436.146-2.666.44-3.692.352-1.114.923-1.973 1.714-2.574.793-.6 1.731-.9 2.818-.9z"/></svg>
