<svg xmlns="http://www.w3.org/2000/svg" viewBox="0 0 128 128"><path fill="#fff" d="m18.09 42.617.043 11.502-6.801-9.32-5.174 3.762 6.756 9.324 5.219 1.668V54.12l3.207 4.404 3.209-4.404v5.432l5.174-1.668 6.757-9.324-5.175-3.762-6.756 9.32-.043-11.502H18.09zm11.633 15.268-3.207 4.404L31.689 64l10.95-3.592-1.967-6.072-10.95 3.549zM31.689 64l-5.173 1.668 3.207 4.404 10.949 3.551 1.967-6.072L31.689 64zm-1.966 6.072-5.174-1.668v5.432l6.756 9.322 5.175-3.762-6.757-9.324zm-5.174 3.764-3.21-4.404-3.206 4.404v11.547h6.416V73.836zm-6.416 0v-5.432l-5.219 1.668-6.756 9.324 5.174 3.762 6.8-9.322zm-5.219-3.764 3.209-4.404L10.947 64 0 67.55l1.967 6.071 10.947-3.549zM10.947 64l5.176-1.71-3.209-4.405-10.947-3.551L0 60.408 10.947 64zm52.647-10.479v14.97a2.975 2.975 0 0 1-2.994 2.993v2.995c3.293 0 5.988-2.696 5.988-5.989V53.521h-2.994zm11.974 0v14.97c0 3.292 2.696 5.988 5.989 5.988 3.293 0 5.986-2.696 5.986-5.989v-8.98a2.975 2.975 0 0 1 2.994-2.994 2.975 2.975 0 0 1 2.992 2.994v8.98c0 3.293 2.696 5.989 5.989 5.989 3.293 0 5.988-2.696 5.988-5.989V53.521h-2.994v14.97a2.975 2.975 0 0 1-2.994 2.993 2.975 2.975 0 0 1-2.995-2.994v-8.98c0-3.293-2.693-5.989-5.986-5.989-3.293 0-5.988 2.696-5.988 5.989v8.98a2.975 2.975 0 0 1-2.992 2.994 2.975 2.975 0 0 1-2.995-2.994V53.521h-2.994zm35.967 0v2.995h6.713v17.963h2.994V56.516H128V53.52h-16.465z"/></svg>
