<svg xmlns="http://www.w3.org/2000/svg" viewBox="0 0 128 128"><path fill="#fff" d="M53.553.102v37.543L32.139 8.165l-14.153 10.28L40.05 48.812 5.404 37.556 0 54.19l35.693 11.6-34.64 11.254L6.455 93.68l35.701-11.598-21.412 29.475 14.149 10.287 22.068-30.38v36.434h17.486V90.355l21.414 29.48 14.153-10.28L87.95 79.187l34.645 11.258L128 73.81 92.3 62.21l34.647-11.26-5.402-16.635-35.703 11.6 21.414-29.473L93.104 6.16 71.039 36.537 71.043.102h-17.49zm17.486 37.552 1.566 11.61 12.454-2.272.105-.146-5.541 10.287 11.414 5.488.152-.049-10.513 5.055 6.004 11.146.16.053-11.48-2.094-1.692 12.551.117.162-8.078-8.468-8.746 9.162v.21L55.396 78.74l-12.46 2.27-.096.13 5.539-10.277-11.41-5.486-.135.045 10.49-5.049-6.004-11.146-.16-.053 11.483 2.094 1.689-12.551-.117-.162 8.078 8.468 8.746-9.162v-.207z"/></svg>
