<svg xmlns="http://www.w3.org/2000/svg" viewBox="0 0 128 128"><path fill="#546e7a" d="m56.96 90.139 8.747-9.163 8.741 9.163v37.76H56.96z"/><path fill="#f50057" d="m42.936 81.01 12.461-2.269 1.691 12.55-22.195 30.552-14.149-10.286Z"/><path fill="#d500f9" d="m36.968 65.376 11.41 5.488-6.007 11.147L6.456 93.68 1.053 77.045Z"/><path fill="#29b6f6" d="m41.32 49.227 6.005 11.146-11.41 5.491L0 54.192l5.405-16.637Z"/><path fill="#00e5ff" d="m54.333 38.717-1.69 12.55-12.462-2.27-22.194-30.552 14.152-10.28z"/><path fill="#546e7a" d="m71.04 37.861-8.747 9.163-8.741-9.163V.101h17.49z"/><path fill="#f50057" d="m85.059 46.992-12.454 2.272-1.693-12.552L93.104 6.16l14.152 10.283Z"/><path fill="#d500f9" d="m91.037 62.621-11.413-5.488 6.005-11.149 35.915-11.667 5.403 16.635z"/><path fill="#29b6f6" d="m86.68 78.773-6.005-11.146 11.41-5.486L128 73.808l-5.405 16.637Z"/><path fill="#00e5ff" d="m73.667 89.283 1.693-12.55 12.459 2.27 22.194 30.552-14.152 10.28z"/></svg>
