<svg xmlns="http://www.w3.org/2000/svg" viewBox="0 0 128 128"><path fill="#fff" fill-rule="evenodd" d="m24.548 54.12-.043-11.503H18.09l.043 11.504 3.207 4.405zM18.133 73.836v11.547h6.415V73.836l-3.208-4.405Z"/><path fill="#00f2e6" fill-rule="evenodd" d="m24.548 73.836 6.757 9.323 5.175-3.763-6.757-9.323-5.175-1.668zM18.133 54.12l-6.8-9.322-5.175 3.763 6.757 9.323 5.218 1.668z"/><path fill="#00b9f1" fill-rule="evenodd" d="m12.915 57.884-10.948-3.55L0 60.409 10.948 64l5.175-1.71ZM26.515 65.668l3.208 4.405 10.948 3.55 1.967-6.073L31.69 64Z"/><path fill="#d63aff" fill-rule="evenodd" d="m31.69 64 10.948-3.592-1.967-6.073-10.948 3.55-3.208 4.404zM10.948 64 0 67.55l1.967 6.072 10.948-3.55 3.208-4.404Z"/><path fill="#fb015b" fill-rule="evenodd" d="m12.915 70.073-6.757 9.323 5.175 3.763 6.8-9.323v-5.431zM29.723 57.884l6.757-9.323-5.175-3.763-6.757 9.323v5.431z"/><path fill="#fff" fill-rule="evenodd" d="M66.587 53.522V68.49c0 3.293-2.694 5.988-5.987 5.988v-2.994a2.975 2.975 0 0 0 2.994-2.994V53.522Zm54.656 2.994H128v-2.994h-16.465v2.994h6.714v17.962h2.994zm-18.732-2.994V68.49a2.975 2.975 0 0 1-2.993 2.994 2.975 2.975 0 0 1-2.994-2.994v-8.98c0-3.293-2.694-5.988-5.987-5.988s-5.988 2.695-5.988 5.988v8.98a2.975 2.975 0 0 1-2.993 2.994 2.975 2.975 0 0 1-2.994-2.994V53.522h-2.994V68.49c0 3.293 2.695 5.988 5.988 5.988s5.987-2.695 5.987-5.988v-8.98a2.975 2.975 0 0 1 2.994-2.994 2.975 2.975 0 0 1 2.993 2.994v8.98c0 3.293 2.695 5.988 5.988 5.988s5.987-2.695 5.987-5.988V53.522z"/></svg>
