<svg xmlns="http://www.w3.org/2000/svg" stroke-linejoin="round" stroke-miterlimit="2" viewBox="0 0 128 128"><path fill="#997bc8" d="M23.326.065a.496.496 0 0 0-.248.43v18.79a7.137 7.137 0 0 0 3.568 6.177L52.963 40.66 26.675 55.837a.496.496 0 0 0-.002.001 7.186 7.186 0 0 0-2.566 2.586.496.496 0 0 0-.066.05c-.193.338-.358.69-.494 1.055a.496.496 0 0 0-.002.001 7.616 7.616 0 0 0-.331 1.168.496.496 0 0 0 0 .003c-.06.302-.102.608-.123.915-.01.15-.013.3-.013.45a.496.496 0 0 0 0 .002v14.89c0 .584.085 1.164.226 1.732v.002c.01.04.006.084.018.126a.496.496 0 0 0 0 .002c.08.3.181.597.3.885l.002.004a.496.496 0 0 0 0 .002 7.19 7.19 0 0 0 3.05 3.475l7.192 4.152-7.191 4.152a7.196 7.196 0 0 0-3.597 6.23v14.888a7.196 7.196 0 0 0 3.597 6.23l4.046 2.336.006.004a.497.497 0 0 0 .502-.857c-.002 0-.004-.003-.006-.004-2.087-1.246-2.796-3.976-1.575-6.09a4.433 4.433 0 0 1 1.63-1.627L54.45 99.22l49.726 28.714a.496.496 0 0 0 .744-.43v-18.79a7.138 7.138 0 0 0-3.568-6.18l-26.32-15.198 22.123-12.772a.496.496 0 0 0 .006.002l.02-.015 4.144-2.39a7.193 7.193 0 0 0 3.411-4.615.496.496 0 0 0 .002-.009c.015-.067.028-.135.04-.204l.003-.008c.033-.168.06-.338.081-.51l.002-.01a8.04 8.04 0 0 0 .02-.156.496.496 0 0 0 .001-.007c.024-.232.037-.47.037-.713V51.044a7.194 7.194 0 0 0-3.597-6.23l-4.044-2.335-3.15-1.818 3.026-1.746a.496.496 0 0 0 .004 0l.021-.012.012-.008 4.131-2.385a7.191 7.191 0 0 0 3.597-6.23V15.395a7.195 7.195 0 0 0-3.597-6.23l-4.044-2.337-.006-.004a.497.497 0 0 0-.502.857c.002 0 .004.002.006.004 2.086 1.245 2.794 3.974 1.574 6.088a.496.496 0 0 0-.002 0 4.416 4.416 0 0 1-1.597 1.612l-.031.017a.496.496 0 0 0-.002.002l-23.17 13.373L23.822.066a.496.496 0 0 0-.496 0zm.744 1.291 49.232 28.425a.496.496 0 0 0 .496 0l23.419-13.52.032-.018a.496.496 0 0 0 .006-.002 5.409 5.409 0 0 0 1.956-1.973v-.003c.946-1.64.852-3.548.066-5.14l1.552.897a6.197 6.197 0 0 1 3.1 5.37V30.28a6.197 6.197 0 0 1-3.1 5.37l-4.103 2.37a.496.496 0 0 0-.006-.002l-.02.014-3.809 2.197a.496.496 0 0 0 0 .86l3.893 2.247 4.045 2.337a6.197 6.197 0 0 1 3.1 5.37V65.93a6.203 6.203 0 0 1-.05.748.496.496 0 0 0 0 .01c-.018.15-.043.3-.073.45a.496.496 0 0 0-.002.008c-.011.06-.022.12-.035.18a6.201 6.201 0 0 1-2.94 3.98l-4.103 2.367a.496.496 0 0 0-.006-.002l-.021.014-22.907 13.223a.496.496 0 0 0 0 .86l27.064 15.628a6.14 6.14 0 0 1 3.072 5.32v17.928L54.698 98.22a.496.496 0 0 0-.497 0l-23.42 13.52a5.425 5.425 0 0 0-1.992 1.992c-.948 1.642-.853 3.55-.066 5.142l-1.552-.896a6.198 6.198 0 0 1-3.101-5.37V97.722a6.198 6.198 0 0 1 3.1-5.37l7.937-4.583a.496.496 0 0 0 0-.86l-7.936-4.581a6.2 6.2 0 0 1-2.63-2.996.496.496 0 0 0 0-.002 6.191 6.191 0 0 1-.26-.763v-.002a.496.496 0 0 0 0-.002 6.204 6.204 0 0 1-.211-1.605v-14.89a5.5 5.5 0 0 1 .012-.385v-.002a6.194 6.194 0 0 1 .15-.996.496.496 0 0 0 .003-.004 6.65 6.65 0 0 1 .157-.558.496.496 0 0 0 0-.002c.026-.082.055-.164.085-.244h-.002c.114-.307.255-.603.417-.888a.496.496 0 0 0 .019-.015 6.203 6.203 0 0 1 2.262-2.278L54.205 41.09a.496.496 0 0 0 0-.86L27.142 24.604a6.142 6.142 0 0 1-3.072-5.32zm49.226 50.186-30.383 17.54a.496.496 0 0 0 0 .86L54.2 76.46a.496.496 0 0 0 .496 0l30.383-17.544a.496.496 0 0 0 0-.857l-11.287-6.515a.496.496 0 0 0-.496 0zm.248 1.003 10.295 5.942-29.391 16.967-10.293-5.941z" overflow="visible"/></svg>
