<svg xmlns="http://www.w3.org/2000/svg" xml:space="preserve" fill-rule="evenodd" stroke-linejoin="round" stroke-miterlimit="2" clip-rule="evenodd" viewBox="663.38 37.57 128 128"><path fill="#706bc8" d="m686.638 37.57 78.11 45.097a6.75 6.75 0 0 1 3.374 5.846v15.005a6.755 6.755 0 0 1-.904 3.375s-62.009-35.8-77.235-44.592a6.692 6.692 0 0 1-3.345-5.796z"/><path fill="#55c5e4" d="M764.776 140.84a6.69 6.69 0 0 1 3.346 5.795v18.935l-78.109-45.096a6.75 6.75 0 0 1-3.375-5.845V99.624c0-1.207.321-2.367.904-3.375l77.234 44.591"/><path fill="#84ddea" d="M694.153 114.186a4.962 4.962 0 0 0-1.826 1.827c-1.367 2.366-.572 5.425 1.77 6.817h-.001l-4.083-2.356a6.748 6.748 0 0 1-3.375-5.846V99.623a6.748 6.748 0 0 1 3.375-5.845l70.594-40.753.034-.02a4.952 4.952 0 0 0 1.792-1.807c1.366-2.366.572-5.425-1.77-6.818h.002l4.082 2.357a6.749 6.749 0 0 1 3.375 5.846v15.005a6.747 6.747 0 0 1-3.375 5.845l-4.197 2.424.057-.037z"/><path fill="#997bc8" d="M694.153 150.117a4.969 4.969 0 0 0-1.826 1.825c-1.367 2.367-.572 5.425 1.77 6.819h-.001l-4.083-2.357a6.75 6.75 0 0 1-3.375-5.845v-15.005a6.748 6.748 0 0 1 3.375-5.846l70.594-40.753.034-.02a4.961 4.961 0 0 0 1.792-1.807c1.366-2.367.572-5.425-1.77-6.818h.002l4.082 2.358a6.747 6.747 0 0 1 3.375 5.845v15.005c0 2.41-1.286 4.64-3.375 5.846l-4.197 2.422.057-.036z"/></svg>
