<svg xmlns="http://www.w3.org/2000/svg" xml:space="preserve" fill-rule="evenodd" stroke-linejoin="round" stroke-miterlimit="2" clip-rule="evenodd" viewBox="663.38 37.57 128 128"><path fill="#997bc8" d="M686.638 37.57v18.936a6.692 6.692 0 0 0 3.346 5.794l27.275 15.749-27.246 15.728a6.748 6.748 0 0 0-2.46 2.479l-.01-.006a6.716 6.716 0 0 0-.464.99 6.748 6.748 0 0 0-.092.266c-.065.198-.122.4-.17.605a6.748 6.748 0 0 0-.052.232 6.725 6.725 0 0 0-.113.858 6.748 6.748 0 0 0-.014.422v15.006a6.748 6.748 0 0 0 .23 1.746 6.75 6.75 0 0 1 0 .002 6.748 6.748 0 0 0 .283.834 6.75 6.75 0 0 1 0 .002 6.748 6.748 0 0 0 2.862 3.261l7.998 4.618-7.998 4.617a6.748 6.748 0 0 0-3.375 5.845v15.004a6.75 6.75 0 0 0 3.375 5.846l4.084 2.358c-2.342-1.394-3.137-4.454-1.77-6.82a4.969 4.969 0 0 1 1.826-1.825l23.602-13.627 50.367 29.08v-18.936a6.69 6.69 0 0 0-3.346-5.794L737.5 125.09l23.108-13.341-.057.037 4.197-2.422a6.749 6.749 0 0 0 3.2-4.332 6.755 6.755 0 0 0 .04-.201c.033-.163.06-.327.08-.492a6.755 6.755 0 0 0 .02-.155c.022-.22.035-.443.035-.668V88.513a6.747 6.747 0 0 0-3.375-5.845l-4.076-2.354-3.924-2.265 3.86-2.229-.057.037 4.197-2.424a6.747 6.747 0 0 0 3.375-5.845V52.584a6.749 6.749 0 0 0-3.375-5.846l-4.082-2.357c2.341 1.393 3.134 4.452 1.768 6.818a4.952 4.952 0 0 1-1.791 1.807l-.035.02-23.602 13.624zM737 89.449l11.375 6.566-30.621 17.678-11.375-6.566Z"/></svg>
