<svg xmlns="http://www.w3.org/2000/svg" viewBox="0 0 128 128"><path fill="#cc0000" d="M.49 115.865C0 114.27 0 112.74 0 111.12V99.036c0-4.09.075-8.746 1.029-12.7 3.514-.865 7.504-.915 11.696-.915h9.148a9.7 9.7 0 0 1 .213 1.907 11 11 0 0 1-.213 1.908c-1.28.414-2.56.414-3.878.414h-5.07c-2.735 0-5.107 0-7.466.49-.339 2.522-.414 5.52-.414 8.909h13.703a7.9 7.9 0 0 1 .201 1.87 9.3 9.3 0 0 1-.2 1.97c-1.318.414-2.56.414-3.966.414H5.045v12.55a10.3 10.3 0 0 1-2.221.212 19 19 0 0 1-2.335-.2"/><path fill="#cc0000" d="M25.085 115.827a29.4 29.4 0 0 1-.238-4.204V89.675c0-1.456 0-2.886.452-4.304a9.3 9.3 0 0 1 3.84 0c.414 1.405.414 2.886.414 4.342v21.86c0 1.355.038 2.648-.251 4.254a7.5 7.5 0 0 1-2.02.251 9.1 9.1 0 0 1-2.197-.25"/><path fill="#cc0000" d="m34.284 124.574 4.166-9.525-5.848-14.193c-.652-1.644-1.656-3.915-1.694-5.722a8.7 8.7 0 0 1 2.36-.289 8.8 8.8 0 0 1 2.22.251l5.522 14.394 2.987-6.513c.941-2.12 2.221-5.622 2.836-7.88a9.7 9.7 0 0 1 2.322-.252 9.3 9.3 0 0 1 2.258.251c-.276 2.635-1.77 5.722-3.3 9.199l-8.835 20.279a11.2 11.2 0 0 1-2.434.25 11.8 11.8 0 0 1-2.56-.25"/><path fill="#cc0000" d="m57.45 115.827-4.255-15.925c-.502-1.807-.953-3.463-1.041-4.78a11 11 0 0 1 2.56-.29 10.8 10.8 0 0 1 2.359.252l3.714 15.924 5.823-15.761a8.4 8.4 0 0 1 1.895-.214 9.4 9.4 0 0 1 2.02.214l5.823 15.761 3.702-15.924a10 10 0 0 1 2.322-.251 11 11 0 0 1 2.597.288c-.125 1.519-.527 3.125-1.004 4.819l-4.116 15.887c-1.154.289-2.02.414-2.848.414s-1.782-.125-3.062-.414l-5.371-14.318-5.233 14.318c-1.192.289-2.02.414-2.886.414s-1.732-.113-3-.414"/><path fill="#cc0000" d="M86.902 109.1v-1.605c0-3.125.138-8.082 1.456-11.232 3.05-1.48 5.66-2.146 8.119-2.146 5.32 0 9.537 1.406 9.537 7.266v8.71a50 50 0 0 1-.326 5.722 6.2 6.2 0 0 1-1.744.25 8.8 8.8 0 0 1-2.008-.25l-.377-2.008c-1.493 1.518-4.128 2.46-6.902 2.46s-7.755-1.168-7.755-7.166m14.369 1.042V99.325c-.942-.79-2.887-1.154-4.832-1.154s-3.915.376-4.856 1.154v11.633c1.029.828 2.384 1.192 3.79 1.192 2.058.013 4.279-.765 5.898-2.008"/><path fill="#cc0000" d="m110.883 124.574 4.166-9.525-5.86-14.205c-.665-1.657-1.656-3.916-1.694-5.723a8.7 8.7 0 0 1 2.347-.288 9 9 0 0 1 2.233.25l5.522 14.394 2.974-6.525c.941-2.108 2.234-5.61 2.849-7.868a9.7 9.7 0 0 1 2.321-.251 9.5 9.5 0 0 1 2.259.25c-.289 2.636-1.77 5.723-3.3 9.199l-8.822 20.292a11.2 11.2 0 0 1-2.435.25 11.8 11.8 0 0 1-2.56-.25"/><path fill="#cc0000" d="M53.885 50.183a7.35 7.35 0 0 0 1.193-3.564l-5.597 1.155a3.6 3.6 0 0 1-.628.062 3.15 3.15 0 0 1-.627-6.224l12.7-2.61a7.56 7.56 0 0 0 4.78-3.238 7.7 7.7 0 0 0 1.23-3.601l-5.621 1.154a3.6 3.6 0 0 1-.628.063 3.14 3.14 0 0 1-3.087-2.535c-.339-1.707.816-3.35 2.522-3.702l12.55-2.572c2.446-.502 3.877-2.51 4.517-3.652a10.1 10.1 0 0 0 1.13-3.3l-39.48 8.106v29.842l10.14-2.083a7.73 7.73 0 0 0 4.906-3.3"/><path fill="#cc0000" d="M64 3.175c-11.043 0-20.693 2.233-25.173 5.446V19.3l43.294-8.885a1.707 1.707 0 0 1 2.008 1.318l.288 1.418c.728 3.551.1 7.492-1.744 10.817-2.008 3.614-5.12 6.011-8.772 6.764l-.69.138a13.67 13.67 0 0 1-2.372 8.496c-2.045 3.037-5.233 5.082-8.81 5.823l-.664.138a13.87 13.87 0 0 1-11.018 14.306l-11.52 2.359v2.86c4.48 3.226 14.13 5.46 25.173 5.46s20.693-2.234 25.173-5.46V8.622C84.693 5.408 75.043 3.175 64 3.175"/></svg>
