<svg xmlns="http://www.w3.org/2000/svg" viewBox="0 0 128 128"><path fill="#c00" d="M44.715 89.623a14 14 0 0 0 2.275-6.795L36.319 85.03a7 7 0 0 1-1.198.118 6.006 6.006 0 0 1-1.195-11.866l24.213-4.976a14.41 14.41 0 0 0 9.114-6.173 14.7 14.7 0 0 0 2.345-6.866l-10.717 2.2a7 7 0 0 1-1.197.12 5.99 5.99 0 0 1-5.886-4.833c-.646-3.254 1.556-6.387 4.808-7.058l23.928-4.903c4.663-.958 7.391-4.786 8.611-6.963a19.3 19.3 0 0 0 2.155-6.292L16.03 42.993v56.895l19.332-3.971a14.74 14.74 0 0 0 9.353-6.292"/><path fill="#c00" d="M64 0C42.946 0 24.548 4.257 16.006 10.383v20.36l82.543-16.94a3.254 3.254 0 0 1 3.828 2.513l.549 2.704c1.388 6.77.19 14.284-3.325 20.623-3.828 6.89-9.762 11.46-16.724 12.896l-1.316.263A26.06 26.06 0 0 1 77.04 69c-3.899 5.79-9.977 9.689-16.797 11.102l-1.266.263A26.444 26.444 0 0 1 37.97 107.64l-21.964 4.498v5.452C24.548 123.74 42.946 128 64 128s39.452-4.26 47.994-10.41V10.385C103.452 4.257 85.054 0 64 0"/></svg>
