<svg xmlns="http://www.w3.org/2000/svg" class="logo" viewBox="0 0 128 128"><path fill="#77e8b9" d="M.61 53.612a.61.61 0 0 0-.61.61v1.956c0 .17 0 .256.033.321.03.058.077.105.134.134.065.034.15.033.322.033h4.4c.397.018.785.125 1.136.312l2.798 1.645a.345.345 0 0 1 .137.488.346.346 0 0 1-.137.128l-1.33.782a1.133 1.133 0 0 1-1.039 0l-1.038-.605a2.671 2.671 0 0 0-1.14-.312H.49c-.171 0-.257 0-.322.034a.306.306 0 0 0-.134.133C0 59.336 0 59.42 0 59.593v2.69c0 .17 0 .256.033.321.03.058.077.104.134.133.065.034.15.034.322.034h3.787a2.622 2.622 0 0 0 1.14-.312l9.348-5.492c.35-.189.738-.296 1.136-.311h4.386c.171 0 .257 0 .322-.033a.306.306 0 0 0 .134-.134c.033-.065.033-.15.033-.322v-1.955a.61.61 0 0 0-.61-.6zm15.889 5.5a2.67 2.67 0 0 0-1.14.31l-9.348 5.496c-.35.187-.739.294-1.136.311H.49c-.171 0-.257 0-.322.034a.306.306 0 0 0-.134.133C0 65.46 0 65.546 0 65.718v2.69c0 .17 0 .256.033.321.03.058.077.104.134.133.065.034.15.034.322.034h3.787a2.671 2.671 0 0 0 1.14-.312l9.348-5.495a2.65 2.65 0 0 1 1.136-.311h4.386c.171 0 .257 0 .322-.034a.306.306 0 0 0 .134-.133c.033-.065.033-.15.033-.322v-2.69c0-.17 0-.256-.033-.321a.306.306 0 0 0-.134-.134c-.065-.033-.15-.033-.322-.033zm0 6.12a2.671 2.671 0 0 0-1.14.313l-9.348 5.49c-.35.19-.738.297-1.136.313H.49c-.171 0-.257 0-.322.033a.306.306 0 0 0-.134.133C0 71.58 0 71.664 0 71.836v1.956a.613.613 0 0 0 .61.596h19.556a.613.613 0 0 0 .61-.606v-1.956c0-.171 0-.257-.034-.322a.306.306 0 0 0-.134-.133c-.065-.034-.15-.034-.322-.034h-4.4a2.606 2.606 0 0 1-1.136-.312l-2.798-1.64a.347.347 0 0 1 0-.62l1.33-.78a1.132 1.132 0 0 1 1.039 0l1.039.603c.35.189.74.296 1.139.312h3.787c.171 0 .257 0 .322-.034a.307.307 0 0 0 .134-.133c.033-.066.033-.151.033-.322v-2.69c0-.17 0-.256-.033-.322a.306.306 0 0 0-.134-.133c-.065-.033-.15-.033-.322-.033z"/><path d="M125.942 55.722c.455.069.886.247 1.256.52.346.27.592.65.7 1.076.136.59.136 1.202 0 1.792l-.188 1.09-4.581.578.256-1.54h-2.69l-.494 2.866h2.938c.598-.005 1.195.04 1.786.135.475.067.928.245 1.321.519.363.26.626.636.748 1.065a4.109 4.109 0 0 1 0 1.8l-.54 3.114a5.427 5.427 0 0 1-.637 1.848c-.263.455-.629.841-1.069 1.129a3.957 3.957 0 0 1-1.45.553c-.6.102-1.208.15-1.817.146h-3.536a9.808 9.808 0 0 1-1.786-.146 2.632 2.632 0 0 1-1.25-.553 1.987 1.987 0 0 1-.636-1.122 4.925 4.925 0 0 1 .042-1.844l.187-1.114 4.664-.613-.304 1.751h2.993l.533-3.045h-2.938a9.455 9.455 0 0 1-1.803-.152 2.769 2.769 0 0 1-1.28-.558 2.04 2.04 0 0 1-.665-1.12 4.583 4.583 0 0 1 .035-1.86l.505-2.913c.09-.634.305-1.244.63-1.796.27-.44.64-.81 1.08-1.083.445-.263.936-.44 1.446-.523.572-.093 1.151-.138 1.73-.135h3.115c.57-.004 1.138.04 1.7.135zm-89.642 0c.455.069.886.247 1.256.52.346.27.592.65.7 1.076.136.59.136 1.202 0 1.792l-.188 1.09-4.581.578.256-1.54h-2.69l-.494 2.866h2.938c.598-.005 1.195.04 1.786.135.475.067.928.245 1.322.519.362.26.625.636.747 1.065a4.109 4.109 0 0 1 0 1.8l-.54 3.114a5.427 5.427 0 0 1-.637 1.848c-.263.455-.63.841-1.069 1.129a3.956 3.956 0 0 1-1.45.553c-.6.102-1.208.15-1.817.146h-3.536a9.809 9.809 0 0 1-1.786-.146 2.634 2.634 0 0 1-1.25-.553 1.987 1.987 0 0 1-.636-1.122 4.93 4.93 0 0 1 .042-1.844l.186-1.114 4.665-.613-.304 1.751h2.993l.533-3.045h-2.938a9.452 9.452 0 0 1-1.803-.152 2.768 2.768 0 0 1-1.28-.558 2.042 2.042 0 0 1-.665-1.12 4.578 4.578 0 0 1 .035-1.86l.505-2.913a4.9 4.9 0 0 1 .63-1.796c.27-.44.64-.81 1.08-1.083.445-.263.935-.44 1.446-.523.572-.093 1.15-.138 1.73-.135h3.115c.57-.004 1.138.04 1.699.135zm3.782.054h12.199l-.73 4.17h-3.714L45.7 72.224H40.93l2.139-12.278h-3.713zm13.562 0-2.869 16.448h4.772l2.866-16.448Zm12.84 6.52 4.63-6.52h4.356l-2.865 16.448h-4.783l1.506-8.6-4.066 5.852-2.153-5.734-1.478 8.482h-4.124l2.865-16.448h3.56zm18.491-6.52-2.159 12.42h-2.81l2.163-12.42h-4.765l-2.257 12.98a4.703 4.703 0 0 0-.027 1.849c.09.438.325.833.668 1.12.378.29.823.48 1.294.551a9.732 9.732 0 0 0 1.803.149h3.56c.63.005 1.259-.045 1.88-.149a4.051 4.051 0 0 0 1.488-.55 3.33 3.33 0 0 0 1.07-1.121c.317-.574.529-1.2.626-1.848l2.249-12.981Zm6.71 0h4.771l-2.138 12.278h5.122l-.727 4.17h-9.894zm18.773 0-2.16 12.42h-2.81l2.163-12.42h-4.765l-2.256 12.98a4.696 4.696 0 0 0-.028 1.849c.09.438.326.833.668 1.12.379.29.824.48 1.295.551a9.727 9.727 0 0 0 1.803.149h3.56c.63.005 1.259-.045 1.88-.149a4.047 4.047 0 0 0 1.487-.55c.44-.285.806-.669 1.07-1.121.317-.574.53-1.2.626-1.848l2.25-12.981z"/></svg>
