<svg xmlns="http://www.w3.org/2000/svg" viewBox="0 0 128 128"><path fill="#77e8b9" d="M3.754 0A3.753 3.753 0 0 0 0 3.754v12.05c0 1.054-.001 1.58.204 1.984.18.354.471.644.825.825.403.205.93.204 1.983.204h27.109c2.447.107 4.84.764 7 1.92l17.237 10.134a2.123 2.123 0 0 1 1.159 1.896 2.132 2.132 0 0 1-1.159 1.9l-8.191 4.82c-.99.511-2.087.78-3.2.78a6.978 6.978 0 0 1-3.2-.78l-6.4-3.733a16.457 16.457 0 0 0-7.021-1.92H3.012c-1.054 0-1.58.002-1.983.208-.354.18-.644.466-.825.82C0 35.265 0 35.792 0 36.846v16.57c0 1.055-.001 1.581.204 1.984.18.354.471.64.825.82.403.206.93.205 1.983.205h23.334a16.154 16.154 0 0 0 7.02-1.917l57.6-33.837a16.036 16.036 0 0 1 6.996-1.921h27.025c1.055 0 1.581.001 1.984-.204.354-.18.644-.467.825-.821.205-.403.204-.93.204-1.983V3.692a3.76 3.76 0 0 0-1.12-2.617A3.755 3.755 0 0 0 124.245 0Zm97.9 33.88a16.45 16.45 0 0 0-7.02 1.916l-57.6 33.858a16.34 16.34 0 0 1-6.997 1.921H3.012c-1.054 0-1.58 0-1.983.204-.354.18-.644.467-.825.821C0 73.003 0 73.529 0 74.583v16.571c0 1.054-.001 1.58.204 1.984.18.354.471.64.825.82.403.205.93.209 1.983.209h23.334a16.457 16.457 0 0 0 7.02-1.921l57.6-33.858a16.327 16.327 0 0 1 6.996-1.917h27.025c1.055 0 1.581-.003 1.984-.208.354-.18.644-.467.825-.821.205-.403.204-.93.204-1.984v-16.57c0-1.055 0-1.581-.204-1.984-.18-.354-.471-.64-.825-.82-.403-.206-.93-.205-1.984-.205zm0 37.716a16.459 16.459 0 0 0-7.02 1.92l-57.6 33.834a16.038 16.038 0 0 1-6.997 1.92H3.012c-1.054 0-1.58 0-1.983.205-.354.18-.644.467-.825.82-.205.403-.204.93-.204 1.984v12.05c.028.98.433 1.911 1.133 2.596A3.78 3.78 0 0 0 3.754 128h120.492a3.781 3.781 0 0 0 3.754-3.733v-12.05c0-1.055 0-1.581-.204-1.984-.18-.354-.471-.64-.825-.82-.403-.206-.93-.209-1.984-.209H97.88a16.054 16.054 0 0 1-7-1.92L73.642 97.174a2.135 2.135 0 0 1-.863-.787 2.14 2.14 0 0 1-.317-1.125 2.125 2.125 0 0 1 1.18-1.909l8.191-4.8a6.974 6.974 0 0 1 3.2-.775c1.114 0 2.21.264 3.2.775l6.4 3.713a16.158 16.158 0 0 0 7.021 1.92h23.333c1.055 0 1.581.002 1.984-.204.354-.18.644-.47.825-.825.205-.402.204-.929.204-1.983V74.608c0-1.054 0-1.585-.204-1.987-.18-.354-.471-.64-.825-.821-.403-.205-.93-.204-1.984-.204z"/></svg>
