<svg xmlns="http://www.w3.org/2000/svg" viewBox="0 0 128 128"><path fill="#a9bacd" d="M62.95 0C45.98 0 30.933 6.004 20.154 17.035 9.374 28.065 2.888 44.095 2.888 64c0 19.402 5.987 35.438 17.024 46.6C30.948 121.762 46.99 128 66.888 128c31.898 0 55.092-19.156 58.089-50.121l.104-1.079H85.76l-.148.808c-.963 5.291-2.884 10.043-5.918 13.427-3.033 3.383-7.144 5.457-12.806 5.457-10.088 0-15.535-3.702-18.707-9.46-3.173-5.757-3.939-13.736-3.939-22.047 0-11.21 1.969-19.65 5.508-25.195 3.54-5.544 8.558-8.282 15.17-8.282 6.223 0 10.857 1.651 14.22 4.782 3.363 3.131 5.505 7.82 6.468 14.075l.129.835h39.375l-.139-1.108c-1.991-15.931-8.005-28.514-18.317-37.065C96.344 4.475 81.813 0 62.95 0Zm0 1.97c18.552 0 32.576 4.385 42.448 12.572 9.624 7.981 15.315 19.678 17.402 34.689H87.375c-1.072-6.131-3.286-11.026-6.892-14.383-3.776-3.515-8.987-5.31-15.564-5.31-7.173 0-12.985 3.17-16.83 9.195-3.846 6.024-5.816 14.814-5.816 26.252 0 8.427.711 16.694 4.185 22.998 3.473 6.304 9.842 10.479 20.43 10.479 6.154 0 10.905-2.357 14.272-6.112 3.193-3.562 5.099-8.371 6.153-13.58h35.504c-3.35 29.407-25.202 47.26-55.929 47.26-19.487 0-34.952-6.07-45.576-16.815C10.687 98.47 4.858 82.998 4.858 64c0-19.479 6.314-34.957 16.704-45.588C31.952 7.78 46.443 1.969 62.95 1.969Z" /></svg>
