<svg xmlns="http://www.w3.org/2000/svg" viewBox="0 0 128 128"><path d="M32.008 10.322C14.838 10.322 0 23.787 0 40.625v.5h68.672c-12.922 4.869-23.036 16.5-25.115 30.936l-6.641 45.007.484.08c17.242 2.833 33.1-5.915 36.332-19.966l.006-.018 8.694-55.918h13.56c17.13 0 31.92-13.522 31.994-30.303H128v-.621zm0 1h94.937c-.299 16.014-14.484 28.924-30.953 28.924H81.574l-8.816 56.711c-3.062 13.308-18.08 21.762-34.703 19.246l6.49-43.998.002-.002c2.161-15.005 13.213-27.016 27.016-31.098l3.312-.98H1.055c.298-16.01 14.48-28.803 30.953-28.803Z"/></svg>
