<svg xmlns="http://www.w3.org/2000/svg" viewBox="0 0 128 128"><path fill="#006da7" d="m59.674 0-3.781.027.027 3.809 1.002-.006-2.102 7.377-3.216-.023-3.973-4.963h.086l.025-3.782-3.808-.027h-.002l-.026 3.781.487.004-2.838 4.717-5-1.39-.016-2.3-3.781.028.025 3.809 1.723-.012.486 6.976-2.965-.021-.011 1.576-5.774-2.775.018-2.655-3.81-.027-.026 3.781 1.457.01-.684 5.523-5.427.967.011-1.634-3.808-.026-.028 3.781 2.522.018 3.205 5.693-1.223-.007-.021 3.025-7.485-.582.014-1.772-3.81-.025-.026 3.781 2.54.018 2.103 4.799-5.409 3.191.004-.482h-.002l-3.808-.028-.028 3.782 3.811.025.004-.451 8.08 5.373-.018 2.512-10.275 2 .008-1.217-3.81-.026-.026 3.782 3.607.025 4.25 3.98-4.361 4.165-3.47-.026-.026 3.783 3.809.026.01-1.405 10.333 1.842.018 2.399-8.108 5.504v-.051l-3.81-.026-.026 3.78 3.81.027.001-.39 5.307 2.958-2.118 4.92-2.447-.015-.027 3.78 3.81.026.014-1.941 7.643-.715.02 2.83 1.347-.01-3.416 6.25-2.494-.017-.026 3.781 3.809.025.01-1.418 5.367.715.584 5.383-1.268-.01-.027 3.784 3.81.025.018-2.426 5.787-3.168.01 1.33 2.99-.021-.586 7.531-1.656-.012-.025 3.782 3.808.025.018-2.354 5.115-1.562 2.83 4.783-.61-.004-.025 3.78 3.809.027.027-3.781-.191-.002 4.21-5.409 3.071-.021 2.084 7.783-.916-.006-.025 3.782 3.81.025.024-3.4 4.105-3.325 4.338 3.543.021 3.141 3.784-.025-.028-3.81-1.13.007 2.132-7.654 3.196.021 4.52 5.76-.097-.002-.039 3.781 3.81.037.038-3.78-1.289-.013 3.158-5.37 5.21 1.519.017 2.517 3.781-.025-.025-3.81-1.891.013-.545-7.395 3.02.022.011-1.527 5.998 3.095-.017 2.502 3.808.026.028-3.782-1.69-.011.64-5.45 5.702-.826-.012 1.637 3.81.025.026-3.779-2.763-.02-3.33-6.197 1.296.01.022-2.994 7.562.754-.013 1.998 3.81.027.026-3.781-2.475-.018-2.24-5.091 5.771-3.3-.006.884 3.811.027.025-3.781-3.808-.028-.004.461-8.477-5.65.018-2.48 10.457-1.98-.01 1.36 3.809.028.027-3.782-3.51-.025-4.472-4.328 4.146-4.014v.123l3.81.028.026-3.782v-.002l-3.809-.025-.01 1.398-10.46-2.13-.016-2.24 8.596-5.778-.004.605 3.809.026.027-3.781-3.81-.028-.005.475-5.718-3.235 2.013-4.728 2.536.018.027-3.782-3.81-.027-.012 1.732-7.698.631-.021-3.054-1.227.007 3.168-5.66 2.82.02.028-3.78-3.81-.027-.008 1.152-5.56-.816-.546-5.16 1.49.01.026-3.78-3.809-.027-.016 2.133-6.058 3.142-.01-1.459-2.963.02.639-6.867 1.846.013.027-3.78-3.81-.028-.016 2.201-5.27 1.445-2.867-4.799.584.004v-.002l.027-3.779-3.81-.027-.026 3.781h.084l-4.003 4.963-3.35.023-2.07-7.267L72 3.85l.025-3.782-3.808-.027v.002l-.022 3.02-4.552 3.638-3.942-3L59.676 0Zm8.517 3.629-.002.195 2.202.016 2.072 7.273-2.295.016.004.54-6.168-4.692zm-9.068.185 4.164 3.17-5.71 4.563.001-.32-2.3-.016 2.105-7.385zm21.713 2.313 2.06.016 2.944 4.925-8.735 2.397-.017-2.385-.248.002zm-35.934.074 2.162.016 3.971 4.963-.398-.002-.016 2.26-8.629-2.4zM63.65 7.26l6.526 4.965.033 4.693-6.32 4.818-6.35-4.838.033-4.78zm27.899 2.697-.008 1.123 1.52.012-.641 6.873-1.938.014-3.966-6.641zm-54.99.023 4.76 1.325-4.053 6.736-1.832-.014-.487-6.98 1.62-.012zm5.199 1.448 8.86 2.467-.03 4.203 2.498.017-1.738 8.766-5.86-.041-.01 1.42-6.548-4.664.039-5.543-1.194-.008zm44.316.031 3.897 6.521-1.063.008.04 5.504-6.434 4.531.007-1.037-6.126-.04-1.739-8.907 2.48-.018-.029-4.101zm15.819 5.299-.008 1.148 1.875.012.54 5.098-8.445-1.24-.013-1.88 6.05-3.138zm-75.655.533 5.776 2.775L32 21.869l-8.348 1.486.672-5.437 1.91.014zm31.295.336 5.875 4.475-7.332 5.59.006-.778-4.14-.03 1.738-8.765 3.85.027zm12.68.021.004.42 3.847-.025 1.737 8.898-3.873-.027-.006.94-7.55-5.75 5.84-4.456zm25.644 4.573 8.49 1.248.928 8.746-2.855.02.02 2.792-8.434-1.047-1.014-9.08 2.885-.02-.02-2.66zm-63.86.095-.018 2.608 2.82.02-.944 9.05-8.484 1.035.02-2.752-2.838-.02 1.043-8.445 8.4-1.496zm31.894.153 8.025 6.113-.062 8.758-2.08 2.383-11.878-.084-1.917-2.164h.029l.064-9.045zm40.908 1.066 5.51.809-.016 2.183.484.004-3.172 5.666-1.886.014zm-81.656.36-1.036 8.359-1.93-.014-3.202-5.693.78.006.013-1.701zm65.807.308.006.727 3.45-.024 1.003 9-10.928-1.355.028-3.813zm-50.027.104 6.549 4.664-.026 3.611-11 1.34.938-8.975 3.535.026zm43.555 8.83 10.998 1.365 1.242 11.123-4.328-.031-.03 4.11-11.287-1.272-.926-10.916 4.3.029.03-4.408zm-37.036.033-.029 4.23 4.09.03-1.066 11.047-10.706 1.212.03-4.093-4.53-.032 1.155-11.046zm48.63 1.404 8.37 1.04.026 3.562.724-.006-4.402 6.482-3.486-.023-1.233-11.055zm-60.28.016-1.145 10.97-3.607-.025-4.398-6.344.699.006.025-3.58zm83.264.459-.012 1.61.797.005-1.924 4.514-6.541-3.701-.012-1.797zm-106.116.066 7.485.58-.014 1.854-6.267 3.699-2.002-4.57.787.006v-.002zm39.715 2.322 3.776.026 1.937 2.187-.055 7.936-6.709.76zm22.6.043 3.738.026.916 10.795-6.37-.717.054-7.848-.305-.002zm36.125.504 6.365 3.6-4.197 9.85-5.07.035.015 2.113-5.553-1.535.043-6.379-1.494-.01 4.412-6.492 5.487-.039zm-90.973.077-.007 1.087 5.532.04 4.396 6.341-1.162-.008-.045 6.526-5.799 1.629.016-2.145-4.701-.031-4.315-9.848 6.086-3.591zm97.723 3.742 5.89 3.332-.011 1.664-8.604 5.781-.008-1.16-1.369.01zm-104.19.076 4.213 9.617-1.728-.012-.006.871-8.08-5.373.012-1.804 5.59-3.3zm59.59 6.86 6.477.73.596 7.013-5.711-.04-.106 15.197 5.844.04-.584 7.04-6.426.506.043-6.223-15.223-.106-.043 6.186-6.832-.68-.691-6.7 6.16.042.106-15.197-6.323-.043.674-6.99 6.815-.77-.043 6.082 15.224.108.043-6.196zm7.643.86 11.18 1.258-.026 3.7-2.367 1.99-8.203-.057-.584-6.89zm-30.85.047-.66 6.848-7.748-.053-.002.237-2.217-1.936.028-3.896 10.6-1.2zm52.613 3.004 5.561 1.54.03 4.22 1.204-.008-3.416 5.34-4.894-7.525 1.49.01zm-73.82.004-.023 3.426 1.463.01-4.846 7.267-3.184-4.91.762.006.03-4.172zm86.314 3.149 10.453 2.129-.008 1.193-4.469 4.324-5.963-5.771zm-99.035.043-.016 2.152-5.906 5.637-4.366-4.088.012-1.701zm75.921.22v.086l8.409.059 5.248 8.068-5 7.815-8.653-.06-.004.501-2.296-2.004.087-12.605 2.21-1.86zm-61.062.03 8.31.058 2.34 2.041-.082 11.823-2.31 2.015-8.211-.056-5.244-8.086zm84.193 2.199 5.643 5.46-5.71 5.524-5.487-.039-3.227-4.963 3.762-5.88 5.02-.036v-.066zm-98.857.111 5.24.037 3.53 5.444-3.54 5.31-5.369.037-5.656-5.297 5.795-5.53zm104.816 5.656 4.487 4.342-.012 1.65-10.457 1.977.015-2.195 5.967-5.773zm-110.931.18 5.955 5.576.013 2.057-10.326-1.838.012-1.646zm15.23.176 4.899 7.553-1.438-.01-.023 3.357-5.766-1.81-.031-4.322-.825.005zm80.615.398 2.875 4.418-.664-.004-.033 4.577-5.61 1.955.026-3.655-1.252-.007zm-64.51 6.735v.086l7.91.056.68 6.592-10.675-1.062.027-3.875 2.059-1.797zm39.971.136 7.88.055 2.646 2.309-.028 3.703-11.072.873zm-58.4 2.434 5.758 1.807-.045 6.592 1.226.007-4.16 5.9-5.676.04.01 1.379-6.29-3.51 4.38-10.176 4.81-.033zm85.113.303-.012 1.728 4.653.032 4.392 9.98-6.086 3.479.008-1.108-5.658-.039-4.32-5.84 1.369.01.045-6.289 5.61-1.953zm-92.025.828.006.924 1.627-.012-4.288 9.955-5.478-3.055.018-2.304zm98.931.238 8.477 5.65-.01 1.401-5.955 3.402-4.293-9.755 1.777.011zm-75.683 2.887 10.804 1.076 1.114 10.785-4.149-.029-.029 4.1-11.059-1.207-1.144-10.54 4.434.03zm52.554.531-.025 3.684 4.524.031-1.182 10.393-11.168 1.277.03-4.08-4.198-.03.86-10.396 11.16-.879zm-40.583.66 6.7.668-.054 7.797-2 2.238-3.543-.025zm28.263.31L77.1 90.176l-3.604-.026-1.935-2.144.052-7.627 6.338-.5zm-48.92 2.655 3.637.024 1.139 10.48-8.375-.914-.026-3.703-.531.004 4.156-5.89zm66.323.094 3.388.023 4.32 5.84-.556-.004-.024 3.512-8.3.95zm20.353 3.941 2.143 4.87-.852-.006-.01 1.34-7.564-.752.013-1.868zm-103.68.174 6.471 3.61.012 1.787-7.637.715.01-1.399-.883-.006Zm45.787 1.36 12.362.085 1.761 1.952h-.082l-.062 8.888-7.82 6.035-7.952-6.154.061-8.625-.215-.002 1.947-2.18zm44.665 4.482-.02 2.822 2.848.02-1.034 8.793-8.35 1.209.018-2.596-2.88-.02 1.052-9.271zm-77.043.125 8.435.92.984 9.064-2.859.02.02 2.762-8.485-1.13-.974-8.964 2.898-.02-.02-2.652zm68.085.9-1.046 9.2-3.477-.026-.004.555-6.603-4.797.025-3.662zm-59.058.084 10.99 1.2-.025 3.752-6.506 4.703-.004-.682-3.477.023zm-12.35 1.692.969 8.9-5.314-.707.013-1.92-.816-.006 3.42-6.256zm83.637.045 1.85.013 3.33 6.196-.541-.004-.012 1.699-5.652.818zm-23.365 3.828 6.605 4.797-.039 5.648 1.096.008-3.926 6.678-8.889-2.594.03-4.21-2.524-.017 1.733-8.838 5.904.041zm-36.963.11-.01 1.4 6.096.043 1.666 8.675-2.51.018.031 4.332-8.785 2.684-4.086-6.907 1.14-.008-.036-5.542 6.494-4.696zm10.594.275 7.478 5.789-5.906 4.556-.004-.533-3.82.027-1.662-8.668 3.906.028.008-1.2zm15.771.125-.006.93 4.096.029-1.73 8.837-3.827-.027-.004.436-5.869-4.543zm32.434 4.902-.633 5.383-1.678-.012-.006.785-5.998-3.096.014-1.857 8.3-1.203zm-80.64.125 8.439 1.123.013 1.906-5.781 3.164.006-.851-2.1-.016-.578-5.326zm40.39 1.004 6.341 4.908-.035 4.846-6.365 5.154-6.285-5.135-.033-4.851zm-26.657 3.818 4.163 7.035-4.881 1.49.008-.964-1.713-.012.586-7.535zm53.243.098 1.873.014.547 7.4-1.452.01.006.83-4.974-1.451zm-13.328 4.539 8.662 2.527-3.229 5.494-1.351-.013-4.524-5.76.426.004zm-26.532.043.016 2.148.484-.004-4.203 5.4-1.941-.01-2.91-4.92zm19.576 1.826-.002.334 2.303.016-2.135 7.66-2.193.015v.1l-3.984-3.256zm-12.642.02 5.933 4.847-3.988 3.229-2.205-.016-2.086-7.79 2.348-.017z"/></svg>
