<svg xmlns="http://www.w3.org/2000/svg" viewBox="0 0 128 128"><path fill="#006da7" d="m61.166 6.412-2.402.018.017 2.42.637-.004-1.336 4.687-2.045-.015-2.521-3.153h.052l.018-2.402-2.42-.018-.018 2.403.309.002-1.803 2.996-3.175-.883-.01-1.46v-.001l-2.403.018.016 2.42 1.096-.008.308 4.431-1.884-.013-.008 1.002-3.668-1.764.011-1.686-2.42-.017-.017 2.402.928.006-.434 3.51-3.45.615.009-1.04h-.002l-2.42-.017v.002l-.008 1.2-.008 1.2v.003l1.6.01 2.037 3.619-.775-.006-.014 1.922-4.754-.372.008-1.125h-.002l-2.42-.015-.016 2.402 1.614.01 1.336 3.05-3.436 2.028.002-.309-2.42-.015h-.002l-.016 2.385v.017l2.42.016.002-.287 5.135 3.414-.012 1.595-6.529 1.272.006-.773-2.42-.018-.018 2.402v.002l2.29.016 2.703 2.531-2.77 2.643-2.205-.016-.018 2.402 2.42.018.006-.893 6.567 1.168.011 1.526-5.152 3.498v-.033l-2.42-.018-.016 2.402 2.42.018.002-.248 3.37 1.88-1.346 3.126-1.555-.012-.016 2.402 2.42.018.01-1.234 4.854-.454.013 1.797.858-.006-2.17 3.97-1.586-.01-.018 2.402 2.422.017.006-.902 3.408.453.371 3.42-.804-.006-.016 2.405 2.42.015.01-1.54 3.677-2.013.006.846 1.9-.014-.372 4.784-1.051-.008-.018 2.402 2.42.016.012-1.494 3.25-.994 1.799 3.039-.389-.002-.018 2.402 2.422.016.016-2.4h-.121l2.676-3.438 1.949-.014 1.324 4.943-.58-.004-.018 2.403 2.422.017.014-2.162 2.607-2.111 2.758 2.252.014 1.994 2.402-.016-.017-2.42-.717.004 1.355-4.863 2.03.016 2.87 3.656h-.062l-.023 2.402 2.42.024.025-2.4-.818-.01 2.006-3.412 3.308.966.012 1.6 2.402-.018-.017-2.42-1.201.008-.346-4.697 1.918.014.008-.97 3.81 1.966-.012 1.59 2.42.017.018-2.404-1.072-.008.406-3.46 3.621-.526-.006 1.039 2.42.017.016-2.402-1.758-.012-2.115-3.937.826.006.013-1.9 4.805.478-.01 1.27 2.422.017.016-2.402-1.572-.012-1.424-3.235 3.668-2.095-.004.56 2.42.018.017-2.402-2.42-.018-.001.293-5.385-3.59.01-1.576 6.642-1.258-.006.865 2.42.016.018-2.4-2.229-.016-2.842-2.75 2.633-2.549v.076l2.422.018.016-2.402-2.42-.018-.006.889-6.647-1.354-.01-1.424 5.462-3.67-.002.385 2.42.016.015-2.403-2.42-.015-.002.3-3.632-2.056 1.279-3.004 1.611.012.016-2.403-2.42-.015-.008 1.097-4.89.403-.014-1.94-.78.006 2.014-3.597 1.791.013.018-2.402-2.42-.018-.006.733-3.533-.52-.348-3.277.95.006.015-2.4-2.42-.018-.01 1.357-3.85 1.996-.005-.93-1.883.012.406-4.361 1.174.008.016-2.403-2.42-.015-.01 1.398-3.348.918-1.822-3.049.371.002.018-2.402-2.42-.018-.018 2.403h.055l-2.543 3.152-2.129.016-1.314-4.617.728.005.018-2.402-2.42-.018-.014 1.92-2.892 2.31-2.504-1.905zm5.41 2.309v.12l1.399.01 1.316 4.622-1.457.01.002.345-3.918-2.982zm-5.76.115 2.647 2.016-3.631 2.9.002-.207-1.461-.01 1.338-4.691zm13.797 1.469 1.309.01 1.867 3.128-5.549 1.522-.01-1.514-.156.002 2.54-3.148zm-22.832.047 1.375.01 2.522 3.154-.252-.002-.01 1.435-5.484-1.525 1.85-3.072zm11.91.673 4.147 3.157.02 2.98-4.014 3.06-4.033-3.072.02-3.039zm17.725 1.715-.006.713.967.006-.406 4.365-1.235.008-2.517-4.215zm-34.936.014 3.024.842-2.574 4.277-1.162-.008-.311-4.435 1.03-.006zm3.303.92 5.631 1.566-.02 2.67 1.586.012-1.103 5.568-3.723-.025-.006.9-4.16-2.963.024-3.521-.758-.006 2.53-4.201zm28.156.02 2.473 4.142-.674.004.026 3.498-4.086 2.879.004-.658-3.893-.028-1.103-5.658 1.576-.012-.018-2.605 5.695-1.563zm10.05 3.365-.007.73 1.194.008.344 3.238-5.368-.789-.007-1.193 3.843-1.994zm-48.065.337 3.668 1.764-.008 1.147-5.303.945.428-3.457 1.213.01zm19.883.215 3.732 2.844-4.658 3.55.004-.493-2.631-.018 1.103-5.57 2.448.017zm8.054.014.002.268 2.446-.018 1.103 5.654-2.46-.017-.005.597-4.799-3.654zm16.293 2.904 5.395.793.59 5.557-1.817.014.012 1.773L82.977 28l-.643-5.766 1.832-.013Zm-40.572.063-.012 1.654 1.793.014-.6 5.752-5.39.656.012-1.75-1.803-.012.664-5.365 5.336-.95zm20.262.096 5.1 3.884-.04 5.563-1.32 1.513-7.547-.052-1.219-1.375h.02l.04-5.748zm25.99.675 3.5.516-.01 1.387.309.002-2.016 3.601-1.199.008zm-51.875.23-.658 5.311-1.227-.008-2.035-3.619.496.004.008-1.08 3.416-.607zm41.807.196.004.463 2.19-.016.64 5.717-6.944-.861.018-2.42zm-31.782.068 4.16 2.961-.015 2.295-6.99.852.595-5.703 2.248.015zm27.67 5.608 6.987.867.789 7.066-2.75-.02-.018 2.612-7.17-.806-.588-6.938 2.73.02zm-23.527.021-.02 2.688 2.598.017-.678 7.02-6.8.77.017-2.602-2.877-.02.733-7.015zm30.893.893 5.318.66.016 2.262.462-.004-2.798 4.119-2.215-.016zm-38.295.01-.729 6.966-2.293-.015-2.79-4.028.442.004.016-2.275zm52.896.29-.008 1.022.508.004-1.223 2.87-4.156-2.354-.008-1.14 4.887-.401zm-67.414.042 4.754.37-.008 1.177-3.982 2.35-1.272-2.905.5.004zm25.23 1.476 2.399.016 1.23 1.389-.035 5.043-4.261.482zm14.358.028 2.377.017.582 6.858-4.049-.455.035-4.989-.193-.002 1.248-1.43zm22.95.318 4.044 2.289-2.666 6.256-3.223.023.01 1.344-3.527-.976.03-4.053-.95-.006 2.8-4.125 3.487-.025-.006-.727zm-57.794.049-.006.693 3.514.026 2.791 4.027-.736-.006-.03 4.147-3.683 1.035.01-1.364-2.987-.02-2.74-6.255zm62.082 2.379 3.742 2.115-.007 1.06-5.465 3.672-.006-.738-.87.006zm-66.191.047 2.678 6.11-1.1-.007-.004.555-5.135-3.414.01-1.149 3.55-2.095zm37.857 4.359 4.117.463.377 4.457-3.629-.026-.068 9.655 3.713.025-.37 4.47-4.083.323.027-3.953-9.672-.066-.027 3.93-4.338-.434-.44-4.256 3.913.027.066-9.654-4.015-.027.427-4.442 4.33-.488L59 41.244l9.672.069zm4.856.547 7.101.799-.015 2.351-1.502 1.264-5.213-.037zm-19.598.03-.42 4.35-4.924-.033-.002.149-1.408-1.229.018-2.476 6.736-.762zm33.424 1.91 3.531.976.02 2.681.765-.005-2.17 3.392-3.109-4.781.947.006.016-2.27zm-46.899.001-.015 2.176.93.006-3.079 4.617-2.021-3.12.482.005.02-2.65zm54.834 1.998 6.643 1.354-.006.76-2.838 2.746-3.79-3.668zm-62.916.03-.01 1.367-3.753 3.582-2.774-2.598.008-1.082 6.53-1.27zm48.233.14v.053l5.342.037 3.334 5.127-3.174 4.965-5.5-.04-.002.32-1.457-1.274.054-8.006zm-38.793.018 5.281.037 1.484 1.295-.05 7.512-1.47 1.28-5.214-.034-3.332-5.139 3.3-4.951zm53.488 1.396 3.586 3.469-3.627 3.51-3.486-.024-2.051-3.152 2.39-3.736 3.188-.024zm-62.805.07 3.33.026L38.097 47l-2.25 3.373-3.412.023-3.592-3.363 3.681-3.515zm66.592 3.594 2.85 2.758-.008 1.049-6.643 1.258.01-1.397zm-70.476.118 3.783 3.54.01 1.305-6.563-1.168.008-1.043zm9.675.109 3.114 4.799-.914-.006-.016 2.133-3.662-1.15-.02-2.747-.523.004zm51.217.254 1.826 2.806-.421-.002-.022 2.907-3.564 1.24.015-2.32-.795-.006zm-40.984 4.28v.052l5.025.035.432 4.19-6.783-.676.017-2.46 1.309-1.142zm25.394.085 5.004.033 1.68 1.469-.016 2.352-7.033.554zm-37.103 1.545 3.658 1.146-.03 4.19.782.006-2.644 3.748-3.606.025.006.875-3.996-2.23 2.783-6.463 3.057-.022zm54.074.193-.008 1.098 2.955.02 2.791 6.34-3.867 2.208.006-.7-3.596-.026-2.746-3.711.871.006.028-3.994 3.566-1.24zm-58.465.526.004.588 1.033-.008-2.724 6.324-3.479-1.941.01-1.463zm62.854.152 5.385 3.59-.008.887-3.783 2.164-2.727-6.2 1.129.008zm-48.084 1.832 6.863.684.707 6.851-2.635-.017-.017 2.605-7.028-.767-.726-6.696 2.816.02zm33.387.338-.016 2.34 2.875.02-.75 6.603-7.096.812.018-2.593-2.666-.02.547-6.603zm-25.782.42 4.258.424-.035 4.953-1.27 1.422-2.254-.016zm17.955.197-.54 6.541-2.29-.015-1.23-1.362.033-4.847zm-31.08 1.688 2.313.015.722 6.657-5.32-.58-.017-2.354-.336.002zm42.137.058 2.152.014 2.744 3.71-.351-.001-.016 2.23-5.273.604zm12.93 2.506 1.361 3.092-.541-.004-.006.852-4.805-.479.008-1.186zm-65.87.11 4.112 2.292.008 1.135-4.85.453.006-.886-.563-.004 1.288-2.99zm29.092.86 7.852.057 1.121 1.239h-.055l-.039 5.648-4.969 3.834-5.052-3.91.039-5.48h-.133l1.236-1.387zm28.375 2.85-.013 1.793 1.808.012-.656 5.588-5.305.768.012-1.65-1.83-.014.67-5.89zm-48.947.079 5.36.585.624 5.758-1.816.012.012 1.756-5.389-.717-.621-5.695 1.842-.014zm43.256.574-.664 5.842-2.21-.016-.001.353-4.197-3.048.015-2.325zm-37.522.052 6.983.762-.016 2.385-4.133 2.986-.002-.433-2.21.015zm-7.843 1.075.613 5.654-3.375-.45.008-1.22-.516-.004 2.17-3.972zm53.134.027 1.174.008 2.117 3.937-.345-.002-.008 1.08-3.588.52zm-14.845 2.432 4.197 3.049-.025 3.587.697.006-2.494 4.242-5.649-1.648.02-2.674-1.604-.012 1.1-5.613 3.752.026zm-23.483.072-.006.889 3.872.027 1.058 5.512-1.592.01.018 2.751-5.58 1.706-2.596-4.385.725-.006-.024-3.522zm6.73.174 4.753 3.678-3.754 2.896-.002-.34-2.426.016-1.057-5.506 2.48.018.007-.762zm10.02.08-.004.59 2.604.017-1.102 5.616-2.43-.018-.001.28-3.729-2.887zm20.606 3.113-.403 3.42L88 76.322l-.004.5-3.81-1.967.007-1.18zm-51.23.08 5.359.713.01 1.211-3.674 2.01.004-.541-1.332-.01-.368-3.383zm25.66.639 4.027 3.117-.022 3.08L63.86 83.1l-3.994-3.266-.021-3.078zm-16.934 2.426 2.642 4.466-3.1.948.005-.612-1.088-.007.373-4.787zm33.822.06 1.192.008.345 4.703-.92.006.004.527-3.16-.921 2.54-4.323zm-8.467 2.883 5.504 1.607-2.052 3.49-.858-.01-2.873-3.657.27.002.01-1.432zm-16.855.027.01 1.366.31-.002-2.674 3.431-1.23-.007-1.85-3.127 5.434-1.66zm12.437 1.16-.002.213 1.463.01-1.357 4.867-1.393.01v.063l-2.53-2.069 3.82-3.093zm-8.033.014 3.77 3.08-2.532 2.05-1.402-.01-1.326-4.948 1.492-.012zm23.805 22.805c-6.164 0-9.156 4.712-9.156 9.38 0 4.67 2.9 9.204 9.156 9.204 6.255 0 9.064-4.625 9.11-9.203.045-4.669-2.946-9.381-9.11-9.381zm-57.791.361-7.977 17.77h3.625l1.541-3.356h9.293l1.494 3.356h3.672l-7.976-17.77H25.88Zm14.277 0v17.77h3.354v-5.213h5.031c8.703 0 8.703-12.557 0-12.557zm17.633 0v17.77h3.354v-5.938h3.218l5.166 5.938h3.989l.046-.227-5.394-6.074c3.354-.68 4.488-2.494 4.488-5.576 0-3.082-2.222-5.847-6.392-5.893H57.79Zm34.99 0v.137l5.985 8.656-6.164 8.885v.092h3.76l4.533-6.664 4.533 6.664h3.761v-.092l-6.209-8.885 6.028-8.656v-.137h-3.67l-4.443 6.62-4.442-6.62zm17.95 0v.137l6.843 10.289v7.344h3.356v-7.344l7.07-10.29v-.136h-4.033l-4.715 7.344-4.533-7.344h-3.989ZM0 103.412v17.768h3.354v-7.207h8.748v7.207h3.308v-17.768h-3.308v7.479H3.354v-7.479zm83.672 2.674c4.17 0 5.846 3.4 5.8 6.346-.045 2.946-1.585 6.072-5.8 6.072s-5.757-3.127-5.848-6.027v-.045c-.09-2.992 1.678-6.346 5.848-6.346zm-22.527.408h5.12c2.086 0 3.038 1.405 3.038 2.856 0 1.45-.907 2.855-3.037 2.855h-5.121v-5.71zm-17.633.045h5.031c4.26 0 4.306 6.3 0 6.3h-5.031zm-15.774.59 3.266 7.568h-6.572z"/></svg>
