<svg xmlns="http://www.w3.org/2000/svg" viewBox="0 0 128 128"><defs><mask id="a" maskUnits="userSpaceOnUse"><circle cx="64" cy="64" r="63.9" fill="#c4c4c4"/></mask></defs><path fill="#dd0b78" d="M-22.2-14v155.9h172.4V-14zm57.4 38.5c.8 6.4 4.2 10.1 10.8 10.8q-10.95 1.65-10.8 10.8c-1.1-5.9-4.6-9.6-10.8-10.8 6.7-.8 10-4.6 10.8-10.8M81 29.6c8.7 10.6 12.5 20 6.6 33.3 4.9 5.3 7 13.8 6.9 21.8l-15-3.5-.1.1-2.4 6.3-19.4-5.7 2-6.8-14.8-5.9c4.7-5.8 9.4-8.6 16.8-12.2-.7-11.3 8.5-19.4 19.4-27.4m-3.8 16.1c-3.1 0-5.6 2.5-5.6 5.6s2.5 5.6 5.6 5.6 5.6-2.5 5.6-5.6-2.5-5.6-5.6-5.6M54.9 95.2l17.184 5.595.016-.096v.102l-.016-.006c-.31 1.714-5.034 26.24-22.885 32.705L20.1 115C45.7 115 54.9 95.2 54.9 95.2" mask="url(#a)"/></svg>
