<svg xmlns="http://www.w3.org/2000/svg" viewBox="0 0 128 128"><path fill="#346598" d="M36.438 0C29.05.008 21.74 1.86 16.877 5.754c-1.027.88-1.393 1.54-1.393 2.68V119.57c0 1.14.346 1.52 1.586 2.54 4.57 3.48 11.95 5.901 19.37 5.892q.365-.002.667-.059h.038c.118.007.293.005.431.008.238.006.449.017.752.014l72.799-13.631c.77-.145 1.389-1.059 1.389-2.049V15.816c0-.99-.618-1.902-1.39-2.046L46.669 1.7V1.7L39.311.324l-.983-.183h-.002L38.2.12a8 8 0 0 0-1.178-.094l-.013-.002a5 5 0 0 0-.569-.023zm-8.534 16.521V18.6l-.89.296a2.4 2.4 0 0 1 .824 1.067q.267.657.267 1.664v.002c0 1.733-.737 2.743-2.197 3.03l-2.814.548q-.255.052-.37.201-.102.163-.103.479v.441l-.932.18V23.8l4.206-.86q.656-.132.947-.533.303-.403.304-1.164 0-.824-.384-1.273-.383-.45-1.065-.3l-2.603.575q-.255.058-.37.193-.103.15-.103.45v.412l-.932.201v-3.606l.932-.216v.392q0 .318.104.42.113.117.369.059l3.326-.764q.265-.06.37-.213.117-.157.118-.478v-.34zm28.067 5.815 12.123 1.562.547 6.827c2.046-2.653 4.33-4.441 6.841-5.381 2.528-.982 5.518-1.236 8.94-.778 8.482 1.134 12.543 6.75 12.543 16.893v19.98q0 1.835.6 2.659.67.73 2.15.726l2.047-.006v6.668l-13.063.35V40.89q0-4.715-1.68-6.965c-1.13-1.577-2.98-2.51-5.574-2.797-2.867-.316-5.268.369-7.183 2.078-1.94 1.73-2.92 4.338-2.92 7.803v20.193q0 2 .625 2.899.71.796 2.38.79l2.26-.005v7.271l-21.128.567-.002-7.78 2.45-.007q1.935-.005 2.7-.834.858-.93.857-2.993V34.6q0-2.063-.763-2.965-.765-1.01-2.698-1.213l-2.052-.215zm-30.49 4.408q1.053-.013 1.718.606.906.84.906 2.841t-.906 3.13q-.885 1.133-2.463 1.365-1.544.225-2.392-.63-.843-.845-.842-2.763 0-1.919.842-3.047.848-1.136 2.392-1.424a4.4 4.4 0 0 1 .744-.078m.068 1.69a4 4 0 0 0-.81.066q-1.173.209-1.733.848-.56.65-.559 1.787 0 1.138.559 1.603.558.467 1.732.285 1.196-.185 1.776-.84.593-.66.593-1.824t-.593-1.627q-.362-.277-.965-.298m2.355 5.64v2.256l-4.886 2.633 4.886 1.394v2.258l-.916.098v-.358q0-.388-.08-.54-.067-.139-.277-.211l-4.942-1.608v-1.73l4.942-2.875a.55.55 0 0 0 .277-.282q.08-.155.08-.56v-.34zm-2.822 8.71q1.39-.037 2.143.777.853.92.88 2.734v.117q0 1.838-.851 2.844-.85.995-2.272 1.094l-.595.039v-5.856q-1.04.104-1.535.77-.483.678-.483 1.734a7 7 0 0 0 .065 1.006 2.6 2.6 0 0 0 .24.723l.457-.036v1.475l-.889.063a4.9 4.9 0 0 1-.553-1.395q-.187-.74-.187-1.777-.001-1.792.791-2.957.81-1.16 2.379-1.327.212-.023.41-.029m.363 1.655q-.105.002-.216.012v4.23c1.274-.096 1.916-.83 1.916-2.2h.001q0-1.084-.515-1.602-.45-.45-1.186-.44m4.92 6.627v2.842l-7.271.36q-.243.012-.358.16-.114.147-.115.447v.46l-.932.04v-3.762l.932-.058v.459q0 .315.115.435.114.136.37.121l5.751-.334q.258-.015.366-.168.122-.138.123-.464v-.473zm-.205 4.858v2.527l-6.146 1.729 4.668 1.67v1.369l-4.668 1.754 6.146 1.654v2.512l-1.006-.026v-.36q.002-.472-.123-.671-.105-.199-.43-.285l-6.912-2v-1.37l4.73-1.876-4.73-1.776v-1.384l6.915-2.12c.214-.06.357-.16.43-.292q.12-.2.12-.674v-.342zm-8.47 13.02.931.023v.394q.001.317.104.446.114.148.369.154l3.34.1q.25.007.367-.12.12-.125.12-.431v-.34l.983.023v2.243l-.73.2a1.76 1.76 0 0 1 .57.848q.16.526.16 1.225v.746l-.982-.05V73.5q0-.92-.344-1.322-.33-.399-1.023-.426l-2.461-.096q-.255-.008-.37.114-.102.123-.103.423v.395l-.932-.04zm0 5.917.931.051v.46q.001.315.115.448.114.15.37.164l3.328.202q.249.015.355-.125.12-.122.12-.446v-.467l.995.055v2.809l-4.81-.33q-.243-.019-.358.117-.114.134-.115.433v.461l-.932-.07zm7.234 1.426 1.25.076v1.856l-1.25-.086zm-1.977 3.067.957.072v1.265l1.453.12.461 1.775-1.914-.174v2.34l-.957-.1v-2.326l-3.498-.316q-.56-.05-.8.181-.24.247-.24.784 0 .694.24 1.082l.546.056v1.444l-.965-.106a4.8 4.8 0 0 1-.54-1.191q-.188-.633-.188-1.467-.001-1.305.514-1.922.516-.62 1.521-.537l3.41.28zm-2.656 6.91q.185.003.38.025 1.694.188 2.554 1.305.853 1.105.88 2.926v.119q0 1.837-.851 2.656-.85.81-2.272.6l-.595-.088v-5.858q-1.04-.124-1.535.434-.483.573-.483 1.63a7 7 0 0 0 .065 1.02 3.2 3.2 0 0 0 .24.778l.457.064v1.475l-.889-.131a6 6 0 0 1-.553-1.516q-.187-.78-.187-1.818-.001-1.792.791-2.785.709-.861 1.998-.836m.94 1.787v4.23c1.273.18 1.915-.415 1.915-1.785q0-1.082-.513-1.713-.514-.627-1.403-.732m-3.542 6.392.932.145v.394q.001.318.104.46.114.16.369.2l3.34.532q.25.04.367-.07.12-.112.12-.418v-.338l.983.152v2.24l-.73.106a2.1 2.1 0 0 1 .57.922q.16.547.16 1.246v.746l-.982-.178v-.904q0-.921-.344-1.367-.33-.443-1.023-.559l-2.461-.412q-.255-.046-.37.062-.102.11-.103.41v.395l-.932-.16z"/></svg>
